<svg width="19" height="24" viewBox="0 0 19 24" fill="none" xmlns="http://www.w3.org/2000/svg">
<g id="Frame" clip-path="url(#clip0_1_5487)">
<path id="Vector" d="M18.9993 2.40564C18.7573 2.40564 18.5805 2.40564 18.3945 2.40564C13.5375 2.40564 8.68045 2.39624 3.82345 2.41504C3.46987 2.41504 3.05116 2.5372 2.76272 2.74393C2.35332 3.03524 2.26027 3.52388 2.45567 4.01253C2.64176 4.49178 2.99534 4.76429 3.51639 4.78309C3.91649 4.79248 4.31659 4.78309 4.75391 4.78309C4.75391 7.16993 4.75391 9.50979 4.75391 11.953C5.5448 11.0979 6.27056 10.3273 7.03353 9.51919C7.88956 10.4025 8.63393 11.1731 9.37829 11.9436C9.41551 11.9154 9.46204 11.8966 9.49925 11.8684C9.49925 9.51919 9.49925 7.17933 9.49925 4.81128C12.6814 4.81128 15.8171 4.81128 18.9713 4.81128C18.9806 4.97103 18.9993 5.11198 18.9993 5.24354C18.9993 10.2616 19.0086 15.2702 18.9993 20.2882C18.9993 22.13 17.8083 23.5677 16.0218 23.9342C15.8078 23.9812 15.5938 23.9906 15.3798 23.9906C11.4625 23.9906 7.55459 23.9906 3.63735 23.9906C1.59965 23.9906 0.0271678 22.4683 0.0178632 20.4103C-0.000746051 14.8003 -0.000746051 9.19029 0.0178632 3.58966C0.0178632 1.52232 1.59034 0 3.62805 0C8.28035 0 12.942 0 17.5943 0C18.5526 0 18.9899 0.432263 18.9993 1.39076C19.0086 1.71026 18.9993 2.02976 18.9993 2.40564Z" fill="#6A6B70"/>
</g>
<defs>
<clipPath id="clip0_1_5487">
<rect width="19" height="24" fill="white"/>
</clipPath>
</defs>
</svg>
