<svg width="24" height="15" viewBox="0 0 24 15" fill="none" xmlns="http://www.w3.org/2000/svg">
<g id="Frame" clip-path="url(#clip0_1_5491)">
<g id="Group">
<path id="Vector" d="M11.9577 14.4207C8.41363 14.4207 4.86016 14.4207 1.3161 14.4207C0.347826 14.4207 0 14.0729 0 13.0952C0 9.16569 0 5.23619 0 1.3067C0 0.357227 0.357227 0 1.2879 0C8.43243 0 15.5676 0 22.7121 0C23.6522 0 24 0.357227 24 1.3067C24 5.25499 24 9.19389 24 13.1422C24 14.0635 23.6428 14.4207 22.7309 14.4207C19.1398 14.4207 15.5488 14.4207 11.9577 14.4207ZM12.0047 12.6627C14.4583 12.6627 16.9119 12.6627 19.3655 12.6627C19.9671 12.6627 20.1833 12.4653 20.2491 11.8825C20.3243 11.1962 20.7662 10.7544 21.4618 10.6792C22.0259 10.6134 22.2233 10.3972 22.2233 9.83314C22.2233 8.08461 22.2233 6.33608 22.2233 4.59694C22.2233 4.0329 22.0165 3.81669 21.4524 3.75088C20.7662 3.67568 20.3149 3.23384 20.2397 2.54759C20.1739 1.98355 19.9577 1.76733 19.3937 1.76733C14.4583 1.76733 9.52291 1.76733 4.58754 1.76733C4.0235 1.76733 3.80729 1.98355 3.74148 2.54759C3.66628 3.21504 3.22444 3.67568 2.57579 3.75088C1.93655 3.82609 1.75793 4.0141 1.75793 4.64395C1.75793 6.35488 1.75793 8.07521 1.75793 9.78613C1.75793 10.416 1.92714 10.604 2.57579 10.6792C3.18684 10.7544 3.65687 11.2056 3.73208 11.7885C3.83549 12.5217 3.9859 12.6627 4.71915 12.6627C7.16334 12.6627 9.57932 12.6627 12.0047 12.6627Z" fill="#6A6B70"/>
<path id="Vector_2" d="M11.9951 3.16809C14.1667 3.16809 16.3382 3.17749 18.5098 3.15869C18.8012 3.15869 18.9422 3.2339 19.055 3.51592C19.3183 4.18337 19.8071 4.6628 20.4745 4.92602C20.7284 5.02943 20.8318 5.14224 20.8224 5.42426C20.8036 6.60875 20.813 7.79324 20.8224 8.97773C20.8224 9.22215 20.7848 9.36316 20.5215 9.46656C19.8165 9.73918 19.3089 10.2374 19.0362 10.9331C18.9422 11.1775 18.8106 11.2527 18.5568 11.2527C14.1855 11.2433 9.81414 11.2433 5.44281 11.2527C5.18899 11.2527 5.05738 11.1869 4.96338 10.9425C4.69076 10.2374 4.18312 9.73918 3.48747 9.47597C3.22425 9.37256 3.17724 9.23155 3.18664 8.98713C3.19604 7.80264 3.20544 6.61815 3.18664 5.43366C3.18664 5.15164 3.28065 5.02943 3.53447 4.93542C4.18312 4.68161 4.68135 4.22097 4.93517 3.56292C5.06678 3.2057 5.2642 3.15869 5.59322 3.15869C7.71778 3.17749 9.86114 3.16809 11.9951 3.16809ZM11.9951 9.49477C13.2736 9.49477 14.2795 8.49829 14.2795 7.2198C14.2795 5.9413 13.283 4.94483 12.0045 4.93542C10.726 4.93542 9.72013 5.9319 9.72013 7.21039C9.71073 8.47949 10.7166 9.48537 11.9951 9.49477Z" fill="#6A6B70"/>
<path id="Vector_3" d="M11.1309 7.2009C11.1403 6.68386 11.5163 6.32663 12.0333 6.34544C12.5222 6.36424 12.87 6.72146 12.87 7.2197C12.8606 7.72734 12.4846 8.09397 11.9675 8.07516C11.4787 8.06576 11.1309 7.69914 11.1309 7.2009Z" fill="#6A6B70"/>
</g>
</g>
<defs>
<clipPath id="clip0_1_5491">
<rect width="24" height="14.4207" fill="white"/>
</clipPath>
</defs>
</svg>
