<svg width="36" height="38" viewBox="0 0 36 38" fill="none" xmlns="http://www.w3.org/2000/svg">
<path d="M17.5103 22.8557L16.9284 23.4377L17.5103 24.0196L18.4996 25.0089L19.9763 26.4856L18.3541 28.9297L17.5103 30.1809L16.6738 28.9297L17.5103 27.6713L18.1868 26.6602L17.5103 25.9909L14.957 23.4377L16.5283 21.8737L17.5103 20.8844L18.0922 20.3024L17.5103 19.7205L16.5283 18.7385L14.957 17.1672L16.5283 15.6033L17.5103 14.614L18.0922 14.032L17.5103 13.4501L16.5283 12.4608L17.5103 11.4788L18.4996 12.4608L20.0636 14.032L17.5103 16.5853L16.9284 17.1672L20.0636 20.3024L18.4996 21.8737L17.5103 22.8557Z" fill="#60CC46"/>
<path d="M16.8402 26.6603L17.5095 27.6714L16.6729 28.9299L15.0508 26.4857L16.5275 25.009L17.5095 25.9911L16.8402 26.6603Z" fill="#44C129"/>
<path d="M16.9284 14.0319L17.5103 14.6139L16.5283 15.6032L14.957 14.0319L16.5283 12.4607L17.5103 13.45L16.9284 14.0319Z" fill="#44C129"/>
<path d="M16.9284 20.3025L17.5103 20.8844L16.5283 21.8737L14.957 20.3025L16.5283 18.7385L17.5103 19.7206L16.9284 20.3025Z" fill="#44C129"/>
<path d="M20.063 23.4377L18.4991 25.009L17.5098 24.0197L18.0917 23.4377L17.5098 22.8558L18.4991 21.8738L20.063 23.4377Z" fill="#44C129"/>
<path d="M20.063 17.1672L18.4991 18.7385L17.5098 17.7492L18.0917 17.1672L17.5098 16.5853L18.4991 15.6033L20.063 17.1672Z" fill="#44C129"/>
<path d="M23.8457 8.43815L30.0142 11.1151L26.7481 12.0898L22.4781 9.52929C22.1144 9.34743 21.8089 9.85663 22.1507 10.0894L25.737 12.3954L24.4785 12.7663C23.5183 13.05 22.4781 12.8755 21.6779 12.2717C21.6706 12.2644 21.6706 12.2644 21.6634 12.2571C21.1687 11.8789 20.6013 11.457 20.0194 11.0496C19.2629 10.5186 18.39 10.2567 17.5098 10.2567V6.43773C17.6043 6.43773 17.6916 6.43772 17.7862 6.43045C19.1537 6.34316 20.9796 5.98672 22.2017 4.81556C22.289 4.72827 22.4272 4.70645 22.5436 4.75009L35.0189 9.62386L31.1563 10.7732L24.1075 7.84166C23.722 7.70345 23.4819 8.25629 23.8457 8.43815Z" fill="#1C94D1"/>
<path d="M17.5092 6.43768V10.2567C16.629 10.2567 15.7488 10.5185 14.9995 11.0496C14.4176 11.4569 13.8502 11.8788 13.3556 12.2571C13.3483 12.2644 13.341 12.2644 13.341 12.2716C12.5408 12.8754 11.5006 13.05 10.5404 12.7663L9.28197 12.3953L12.8682 10.0894C13.2028 9.86386 12.9046 9.34739 12.5408 9.52924L8.27085 12.0898L5.0047 11.115L11.1733 8.4381C11.537 8.25625 11.2969 7.69613 10.9114 7.84161L3.86264 10.7731L0 9.62381L12.4827 4.74277C12.599 4.69912 12.73 4.72095 12.8245 4.80824C14.0466 5.9794 15.8652 6.33584 17.24 6.42313C17.3273 6.4304 17.4146 6.43768 17.5092 6.43768Z" fill="#007FCB"/>
<path opacity="0.35" d="M22.543 4.75L31.163 10.7804L35.0256 9.63103L22.543 4.75Z" fill="#007FCB"/>
<path opacity="0.35" d="M12.4827 4.75L3.86264 10.7804L0 9.63103L12.4827 4.75Z" fill="#007FCB"/>
<path d="M18.3016 0C18.3016 0.574667 18.1488 1.11296 17.8797 1.57851C17.6032 2.05861 17.2031 2.4587 16.723 2.73512C16.2575 3.00427 15.7192 3.15703 15.1445 3.15703V1.57851C16.0174 1.57851 16.723 0.872912 16.723 0H18.3016Z" fill="#1C94D1"/>
<path d="M19.8738 1.57129V3.14981C19.0009 3.14981 18.2953 3.85541 18.2953 4.72832H16.7168C16.7168 4.15366 16.8696 3.61536 17.1387 3.14981C17.4151 2.6697 17.8152 2.26962 18.2953 1.9932C18.7609 1.73132 19.2992 1.57129 19.8738 1.57129Z" fill="#60CC46"/>
<path opacity="0.5" d="M18.3012 0H16.7227V4.72827H18.3012V0Z" fill="#0071B3"/>
<path d="M22.8269 32.8141C17.7713 37.6806 10.8607 38.7063 7.3909 35.1055C5.73237 33.3888 5.15769 30.9228 5.55778 28.2895C5.49231 30.3045 6.08153 32.1376 7.38362 33.4906C10.6352 36.8586 17.0948 35.9057 21.823 31.352C26.5513 26.7983 27.7443 20.3751 24.5 16.9998C23.9326 16.4106 23.2634 15.9523 22.5287 15.625C23.7435 15.9596 24.8273 16.5707 25.7002 17.4727C29.1555 21.0734 27.8752 27.9403 22.8269 32.8141Z" fill="#1C94D1"/>
<path d="M12.2725 16.5996L13.9238 17.778C13.9238 17.778 3.72526 23.5174 8.56265 31.5701C8.65721 31.6792 1.0556 24.7977 12.2725 16.5996Z" fill="#44C129"/>
</svg>
