<svg width="212" height="38" viewBox="0 0 212 38" fill="none" xmlns="http://www.w3.org/2000/svg">
<path d="M45.2732 20.8945C44.1915 20.8945 43.1786 20.6885 42.2686 20.2593C41.3587 19.83 40.6033 19.2291 40.0195 18.4394L41.8223 16.2761C42.2858 16.9285 42.8009 17.4092 43.3674 17.7354C43.934 18.0617 44.5349 18.2162 45.2045 18.2162C46.9729 18.2162 47.8657 17.1689 47.8657 15.0743V6.24954H41.8051V3.58838H51.0419V14.9026C51.0419 16.9113 50.544 18.4222 49.5654 19.418C48.5696 20.4138 47.1446 20.8945 45.2732 20.8945Z" fill="#007FCB"/>
<path d="M62.9564 20.8946C61.6172 20.8946 60.3982 20.6714 59.2823 20.2422C58.1663 19.813 57.2048 19.1949 56.3636 18.4223C55.5395 17.6326 54.887 16.7054 54.4407 15.6238C53.9771 14.5594 53.7539 13.3747 53.7539 12.1214C53.7539 10.8681 53.9771 9.68343 54.4407 8.61897C54.887 7.55451 55.5395 6.61022 56.3807 5.82045C57.222 5.03069 58.2006 4.42979 59.3166 4.00057C60.4326 3.57135 61.6687 3.34814 62.9907 3.34814C64.4329 3.34814 65.7377 3.58852 66.9052 4.05208C68.0727 4.51564 69.0513 5.21955 69.8411 6.1295L67.8495 8.08674C67.1799 7.41716 66.4588 6.93642 65.6862 6.61021C64.9136 6.30117 64.0724 6.1295 63.1452 6.1295C62.2525 6.1295 61.4284 6.28401 60.6558 6.57588C59.9003 6.86775 59.2308 7.27979 58.6814 7.81203C58.132 8.34426 57.7027 8.97952 57.3937 9.71778C57.0847 10.456 56.9473 11.2458 56.9473 12.1386C56.9473 12.997 57.1018 13.8039 57.3937 14.525C57.7027 15.2633 58.1148 15.8985 58.6814 16.4308C59.2308 16.9802 59.8832 17.3922 60.6386 17.6841C61.394 17.9759 62.2181 18.1305 63.1281 18.1305C63.9693 18.1305 64.7934 17.9931 65.5832 17.7356C66.373 17.4609 67.1284 17.0145 67.8323 16.3792L69.635 18.7485C68.7422 19.4696 67.7121 20.0019 66.5275 20.3624C65.3428 20.723 64.1582 20.8946 62.9564 20.8946ZM66.6305 18.3193V11.9325H69.635V18.7314L66.6305 18.3193Z" fill="#007FCB"/>
<path d="M82.0825 20.6541H79.6445V3.58838H82.0825V20.6541ZM92.0919 13.0484H81.825V10.9366H92.0919V13.0484ZM91.8687 3.60554H94.3067V20.6713H91.8687V3.60554Z" fill="#007FCB"/>
<path d="M104.35 20.8087C102.977 20.8087 101.758 20.5169 100.71 19.9503C99.6632 19.3837 98.8562 18.594 98.2725 17.6154C97.6888 16.6196 97.4141 15.4864 97.4141 14.1988C97.4141 12.9111 97.6888 11.778 98.2553 10.7822C98.8219 9.78639 99.5945 9.0138 100.573 8.44723C101.552 7.88066 102.668 7.60596 103.904 7.60596C105.157 7.60596 106.256 7.88067 107.217 8.43007C108.179 8.97947 108.934 9.75206 109.467 10.765C110.016 11.7608 110.291 12.9283 110.291 14.2674C110.291 14.3705 110.291 14.4735 110.273 14.6108C110.273 14.7482 110.256 14.8684 110.239 14.9714H99.2511V13.2888H109.02L108.076 13.8726C108.093 13.0485 107.921 12.3102 107.561 11.6578C107.2 11.0054 106.72 10.5075 106.084 10.1298C105.466 9.76921 104.728 9.58037 103.904 9.58037C103.097 9.58037 102.376 9.76921 101.741 10.1298C101.105 10.4903 100.607 11.0054 100.247 11.6578C99.8864 12.3102 99.7147 13.0656 99.7147 13.9069V14.3018C99.7147 15.1602 99.9207 15.9328 100.316 16.6024C100.71 17.272 101.277 17.8042 101.981 18.1819C102.702 18.5596 103.509 18.7485 104.436 18.7485C105.192 18.7485 105.895 18.6111 106.514 18.3536C107.132 18.0961 107.681 17.7012 108.162 17.1861L109.449 18.697C108.866 19.3837 108.145 19.8988 107.269 20.2593C106.393 20.6199 105.432 20.8087 104.35 20.8087Z" fill="#007FCB"/>
<path d="M116.437 20.8087C115.476 20.8087 114.634 20.6542 113.913 20.328C113.192 20.0018 112.626 19.5554 112.248 18.9717C111.853 18.3879 111.664 17.7355 111.664 17.0145C111.664 16.3105 111.836 15.6753 112.162 15.1087C112.488 14.5421 113.038 14.0786 113.793 13.7524C114.548 13.4262 115.561 13.2373 116.849 13.2373H120.935V14.9198H116.935C115.767 14.9198 114.978 15.1087 114.566 15.5036C114.154 15.8985 113.965 16.362 113.965 16.9114C113.965 17.5467 114.222 18.0446 114.72 18.4394C115.218 18.8172 115.922 19.006 116.815 19.006C117.69 19.006 118.463 18.8172 119.115 18.4223C119.768 18.0274 120.248 17.4608 120.54 16.7226L121.004 18.3364C120.695 19.0919 120.145 19.7099 119.373 20.1563C118.617 20.5855 117.622 20.8087 116.437 20.8087ZM120.678 20.6542V17.9244L120.557 17.4093V12.7566C120.557 11.7608 120.266 11.0054 119.699 10.456C119.115 9.90657 118.257 9.63188 117.107 9.63188C116.351 9.63188 115.596 9.75205 114.857 10.0096C114.119 10.2671 113.501 10.5933 113.003 11.0225L112.025 9.27132C112.694 8.73909 113.484 8.32705 114.428 8.03518C115.355 7.74331 116.334 7.60596 117.364 7.60596C119.132 7.60596 120.506 8.03518 121.45 8.89361C122.412 9.75205 122.892 11.074 122.892 12.8424V20.6371H120.678V20.6542Z" fill="#007FCB"/>
<path d="M126.756 20.6542V2.57544H129.091V20.6542H126.756Z" fill="#007FCB"/>
<path d="M131.529 9.66614V7.74325H139.77V9.66614H131.529ZM137.813 20.8087C136.508 20.8087 135.512 20.4653 134.791 19.7614C134.07 19.0575 133.727 18.0617 133.727 16.7569V4.9104H136.062V16.6538C136.062 17.3577 136.234 17.89 136.594 18.2677C136.937 18.6454 137.435 18.8343 138.088 18.8343C138.826 18.8343 139.427 18.6282 139.908 18.2334L140.646 19.9159C140.285 20.2249 139.856 20.4481 139.358 20.6026C138.86 20.7228 138.345 20.8087 137.813 20.8087Z" fill="#007FCB"/>
<path d="M149.883 7.62297C150.948 7.62297 151.875 7.82899 152.682 8.22387C153.489 8.63592 154.124 9.25401 154.57 10.0781C155.017 10.9022 155.257 11.9495 155.257 13.22V20.6541H152.922V13.4947C152.922 12.2414 152.613 11.2971 152.012 10.6619C151.411 10.0266 150.553 9.71757 149.437 9.71757C148.613 9.71757 147.892 9.87208 147.273 10.1983C146.655 10.5245 146.175 11.0052 145.848 11.6405C145.522 12.2757 145.351 13.0655 145.351 14.0098V20.6712H143.016V2.59253H145.351V11.2456L144.887 10.3185C145.316 9.47721 145.951 8.80762 146.844 8.34407C147.686 7.86334 148.716 7.62297 149.883 7.62297Z" fill="#007FCB"/>
<path d="M167.052 20.8946C165.747 20.8946 164.546 20.6714 163.43 20.2422C162.314 19.813 161.352 19.1949 160.528 18.4223C159.704 17.6326 159.069 16.7054 158.622 15.6238C158.159 14.5594 157.936 13.3747 157.936 12.1214C157.936 10.8681 158.159 9.68343 158.622 8.61897C159.069 7.55451 159.721 6.61022 160.545 5.82045C161.369 5.03069 162.348 4.42979 163.447 4.00057C164.546 3.57135 165.764 3.34814 167.086 3.34814C168.477 3.34814 169.765 3.58852 170.915 4.06925C172.065 4.54997 173.044 5.2539 173.834 6.19818L171.791 8.12107C171.173 7.45149 170.486 6.9536 169.713 6.6274C168.958 6.30119 168.117 6.1295 167.224 6.1295C166.331 6.1295 165.507 6.28401 164.769 6.57588C164.03 6.86775 163.395 7.27979 162.846 7.81203C162.296 8.34426 161.884 8.97952 161.575 9.71778C161.266 10.456 161.129 11.2458 161.129 12.1386C161.129 13.0313 161.283 13.8211 161.575 14.5594C161.884 15.2976 162.296 15.9157 162.846 16.4651C163.395 16.9973 164.03 17.4094 164.769 17.7013C165.507 17.9931 166.331 18.1476 167.224 18.1476C168.117 18.1476 168.941 17.9759 169.713 17.6497C170.469 17.3235 171.173 16.8085 171.791 16.1217L173.834 18.079C173.044 19.0061 172.065 19.71 170.915 20.1907C169.765 20.6543 168.477 20.8946 167.052 20.8946Z" fill="#007FCB"/>
<path d="M179.912 20.8258C178.933 20.8258 178.092 20.6541 177.353 20.3279C176.615 20.0017 176.066 19.5382 175.654 18.9373C175.259 18.3363 175.053 17.6668 175.053 16.9285C175.053 16.1903 175.224 15.5378 175.585 14.9541C175.928 14.3704 176.512 13.9068 177.302 13.5634C178.092 13.22 179.156 13.0484 180.478 13.0484H184.255V15.0743H180.701C179.654 15.0743 178.967 15.246 178.607 15.5722C178.246 15.8984 178.074 16.3104 178.074 16.8083C178.074 17.3577 178.298 17.8041 178.727 18.1303C179.173 18.4565 179.774 18.611 180.547 18.611C181.302 18.611 181.972 18.4394 182.556 18.096C183.156 17.7526 183.568 17.2547 183.843 16.5851L184.358 18.405C184.066 19.1604 183.534 19.7614 182.779 20.1906C182.006 20.6198 181.062 20.8258 179.912 20.8258ZM183.998 20.6541V18.0273L183.826 17.4607V12.8595C183.826 11.9667 183.551 11.28 183.019 10.7821C182.487 10.2842 181.663 10.0438 180.581 10.0438C179.843 10.0438 179.139 10.164 178.418 10.3872C177.714 10.6104 177.113 10.9366 176.632 11.3315L175.43 9.11672C176.134 8.58449 176.958 8.17244 177.92 7.91491C178.881 7.64021 179.894 7.52002 180.924 7.52002C182.813 7.52002 184.272 7.96641 185.303 8.87636C186.333 9.7863 186.848 11.177 186.848 13.0484V20.6713H183.998V20.6541Z" fill="#007FCB"/>
<path d="M190.281 20.6542V7.64027H193.183V11.2285L192.839 10.1813C193.234 9.30565 193.835 8.63607 194.676 8.18968C195.518 7.74329 196.565 7.50293 197.801 7.50293V10.4045C197.664 10.3701 197.544 10.3529 197.441 10.3358C197.32 10.3358 197.217 10.3186 197.097 10.3186C195.947 10.3186 195.02 10.662 194.35 11.3316C193.663 12.0011 193.32 13.0141 193.32 14.3361V20.6542H190.281Z" fill="#007FCB"/>
<path d="M205.905 20.8259C204.462 20.8259 203.192 20.534 202.11 19.9675C201.029 19.3837 200.187 18.5939 199.604 17.5982C199.003 16.5852 198.711 15.4521 198.711 14.1644C198.711 12.8596 199.003 11.7093 199.569 10.7135C200.153 9.71769 200.943 8.92794 201.956 8.36137C202.969 7.7948 204.136 7.50293 205.424 7.50293C206.694 7.50293 207.828 7.77762 208.806 8.32702C209.802 8.87642 210.575 9.6662 211.141 10.662C211.708 11.6749 212 12.8596 212 14.2159C212 14.3533 212 14.4906 211.982 14.6623C211.982 14.8168 211.965 14.9713 211.948 15.1259H201.097V13.0999H210.334L209.132 13.7352C209.15 12.9798 208.995 12.3273 208.669 11.7608C208.343 11.1942 207.896 10.7478 207.347 10.4216C206.78 10.0954 206.145 9.94089 205.407 9.94089C204.651 9.94089 203.999 10.0954 203.45 10.4216C202.883 10.7478 202.454 11.1942 202.128 11.778C201.818 12.3617 201.647 13.0313 201.647 13.821V14.3018C201.647 15.0744 201.818 15.7783 202.179 16.3792C202.54 16.9801 203.037 17.4436 203.69 17.7698C204.342 18.096 205.081 18.2506 205.939 18.2506C206.677 18.2506 207.33 18.1304 207.913 17.9072C208.497 17.684 209.012 17.3235 209.476 16.8427L211.107 18.7141C210.523 19.4009 209.785 19.916 208.909 20.2937C208.051 20.6542 207.038 20.8259 205.905 20.8259Z" fill="#007FCB"/>
<g opacity="0.55">
<path d="M41.8216 34.5265L39.7441 28.2427H40.9631L42.8174 33.9256H42.2164L44.1393 28.2427H45.221L47.0924 33.9256H46.5086L48.4144 28.2427H49.5303L47.4529 34.5265H46.2168L44.4999 29.393H44.8261L43.0921 34.5265H41.8216Z" fill="white"/>
<path d="M54.8706 33.5478H58.4245V34.5265H53.7031V28.2427H58.2872V29.2213H54.8706V33.5478ZM54.7847 30.8523H57.9095V31.8138H54.7847V30.8523Z" fill="white"/>
<path d="M71.576 34.6122C71.0953 34.6122 70.6489 34.5264 70.2368 34.3718C69.8248 34.2173 69.4643 33.9941 69.1724 33.7023C68.8805 33.4104 68.6402 33.067 68.4685 32.6721C68.2968 32.2773 68.2109 31.848 68.2109 31.3845C68.2109 30.9209 68.2968 30.4917 68.4685 30.0968C68.6402 29.7019 68.8805 29.3586 69.1724 29.0667C69.4643 28.7748 69.842 28.5516 70.2368 28.3971C70.6489 28.2426 71.0953 28.1567 71.576 28.1567C72.0911 28.1567 72.5546 28.2426 72.9838 28.4143C73.4131 28.586 73.7736 28.8607 74.0655 29.2041L73.3101 29.908C73.0869 29.6676 72.8293 29.4787 72.5546 29.3586C72.2799 29.2384 71.9709 29.1697 71.6447 29.1697C71.3185 29.1697 71.0094 29.2212 70.7347 29.3242C70.46 29.4272 70.2197 29.5817 70.0308 29.7878C69.8248 29.9938 69.6703 30.217 69.5673 30.4917C69.4642 30.7664 69.3956 31.0583 69.3956 31.3845C69.3956 31.7107 69.4471 32.0025 69.5673 32.2772C69.6703 32.5519 69.842 32.7752 70.0308 32.9812C70.2368 33.1872 70.46 33.3245 70.7347 33.4447C71.0094 33.5477 71.3013 33.5993 71.6447 33.5993C71.9709 33.5993 72.2799 33.5306 72.5546 33.4104C72.8293 33.2902 73.0869 33.1014 73.3101 32.8438L74.0655 33.5649C73.7736 33.9083 73.4131 34.1658 72.9838 34.3547C72.5718 34.5264 72.1082 34.6122 71.576 34.6122Z" fill="white"/>
<path d="M77.4121 34.5265L80.245 28.2427H81.3953L84.2281 34.5265H83.0091L80.5712 28.8608H81.0347L78.6139 34.5265H77.4121ZM78.7169 33.0671L79.026 32.1572H82.4254L82.7344 33.0671H78.7169Z" fill="white"/>
<path d="M88.2637 34.5265V28.2427H90.8562C91.4056 28.2427 91.8863 28.3285 92.2812 28.5174C92.6761 28.6891 92.9851 28.9466 93.2083 29.29C93.4315 29.6334 93.5345 30.0282 93.5345 30.4918C93.5345 30.9554 93.4315 31.3502 93.2083 31.6764C92.9851 32.0026 92.6932 32.2602 92.2812 32.4319C91.8863 32.6035 91.4056 32.6894 90.8562 32.6894H88.9161L89.4312 32.1572V34.5265H88.2637ZM89.4312 32.2773L88.9161 31.7279H90.8047C91.3197 31.7279 91.7146 31.6249 91.9721 31.4017C92.2297 31.1785 92.367 30.8695 92.367 30.4746C92.367 30.0797 92.2297 29.7707 91.9721 29.5475C91.7146 29.3243 91.3197 29.2213 90.8047 29.2213H88.9161L89.4312 28.6547V32.2773ZM92.367 34.5265L90.7703 32.243H92.0236L93.6203 34.5265H92.367Z" fill="white"/>
<path d="M99.2339 33.5478H102.788V34.5265H98.0664V28.2427H102.65V29.2213H99.2339V33.5478ZM99.1309 30.8523H102.256V31.8138H99.1309V30.8523Z" fill="white"/>
<path d="M114.566 34.5265V32.037L114.824 32.7581L112.094 28.2427H113.347L115.545 31.8825H114.841L117.056 28.2427H118.206L115.476 32.7581L115.751 32.037V34.5265H114.566Z" fill="white"/>
<path d="M124.866 34.6122C124.368 34.6122 123.922 34.5264 123.51 34.3718C123.098 34.2173 122.737 33.977 122.428 33.7023C122.119 33.4104 121.879 33.067 121.724 32.6721C121.553 32.2773 121.467 31.848 121.467 31.3845C121.467 30.9209 121.553 30.4917 121.724 30.0968C121.896 29.7019 122.136 29.3586 122.428 29.0667C122.737 28.7748 123.098 28.5516 123.51 28.3971C123.922 28.2426 124.368 28.1567 124.849 28.1567C125.347 28.1567 125.793 28.2426 126.205 28.3971C126.617 28.5516 126.978 28.792 127.287 29.0667C127.596 29.3586 127.836 29.7019 127.991 30.0968C128.145 30.4917 128.248 30.9209 128.248 31.3845C128.248 31.848 128.163 32.2773 127.991 32.6721C127.819 33.067 127.579 33.4104 127.287 33.7023C126.978 33.9941 126.617 34.2173 126.205 34.3718C125.793 34.5264 125.347 34.6122 124.866 34.6122ZM124.866 33.5821C125.175 33.5821 125.484 33.5306 125.742 33.4276C126.017 33.3246 126.24 33.17 126.446 32.964C126.652 32.758 126.789 32.5348 126.909 32.2601C127.012 31.9854 127.081 31.6935 127.081 31.3673C127.081 31.0411 127.029 30.7492 126.909 30.4745C126.806 30.1998 126.652 29.9766 126.446 29.7706C126.24 29.5646 126.017 29.4101 125.742 29.3071C125.467 29.204 125.175 29.1525 124.866 29.1525C124.557 29.1525 124.265 29.204 123.991 29.3071C123.716 29.4101 123.493 29.5646 123.287 29.7706C123.081 29.9766 122.926 30.1998 122.823 30.4745C122.72 30.7492 122.651 31.0411 122.651 31.3673C122.651 31.6763 122.703 31.9854 122.823 32.2429C122.943 32.5004 123.081 32.7408 123.287 32.9468C123.493 33.1529 123.716 33.3074 123.991 33.4104C124.248 33.5306 124.54 33.5821 124.866 33.5821Z" fill="white"/>
<path d="M135.426 34.6123C134.568 34.6123 133.881 34.3719 133.4 33.8912C132.92 33.4105 132.662 32.7066 132.662 31.7966V28.2427H133.83V31.7451C133.83 32.3975 133.967 32.8611 134.242 33.153C134.516 33.4448 134.911 33.5993 135.426 33.5993C135.941 33.5993 136.319 33.4448 136.611 33.153C136.886 32.8611 137.023 32.3975 137.023 31.7451V28.2427H138.173V31.7966C138.173 32.7066 137.933 33.4105 137.435 33.8912C136.954 34.3719 136.285 34.6123 135.426 34.6123Z" fill="white"/>
<path d="M143.031 34.5265V28.2427H145.624C146.173 28.2427 146.654 28.3285 147.049 28.5174C147.444 28.6891 147.753 28.9466 147.976 29.29C148.199 29.6334 148.302 30.0282 148.302 30.4918C148.302 30.9554 148.199 31.3502 147.976 31.6764C147.753 32.0026 147.461 32.2602 147.049 32.4319C146.654 32.6035 146.173 32.6894 145.624 32.6894H143.684L144.199 32.1572V34.5265H143.031ZM144.199 32.2773L143.684 31.7279H145.572C146.087 31.7279 146.482 31.6249 146.74 31.4017C146.997 31.1785 147.135 30.8695 147.135 30.4746C147.135 30.0797 146.997 29.7707 146.74 29.5475C146.482 29.3243 146.087 29.2213 145.572 29.2213H143.684L144.199 28.6547V32.2773ZM147.152 34.5265L145.555 32.243H146.808L148.405 34.5265H147.152Z" fill="white"/>
<path d="M159.72 34.5263H158.553V28.2425H159.72V34.5263ZM163.051 31.8308H159.617V30.835H163.051V31.8308ZM162.965 28.2253H164.133V34.5091H162.965V28.2253Z" fill="white"/>
<path d="M170.226 33.5478H173.78V34.5265H169.059V28.2427H173.643V29.2213H170.226V33.5478ZM170.14 30.8523H173.265V31.8138H170.14V30.8523Z" fill="white"/>
<path d="M177.42 34.5265L180.253 28.2427H181.403L184.236 34.5265H183.017L180.579 28.8608H181.043L178.622 34.5265H177.42ZM178.725 33.0671L179.034 32.1572H182.433L182.742 33.0671H178.725Z" fill="white"/>
<path d="M188.271 34.5265V28.2427H189.439V33.5478H192.718V34.5436H188.271V34.5265Z" fill="white"/>
<path d="M197.577 34.5263V29.2211H195.5V28.2253H200.84V29.2211H198.762V34.5263H197.577Z" fill="white"/>
<path d="M206.109 34.5263H204.941V28.2425H206.109V34.5263ZM209.44 31.8308H206.006V30.835H209.44V31.8308ZM209.354 28.2253H210.521V34.5091H209.354V28.2253Z" fill="white"/>
</g>
<path d="M17.5103 22.856L16.9284 23.4379L17.5103 24.0198L18.4996 25.0091L19.9763 26.4858L18.3541 28.93L17.5103 30.1812L16.6738 28.93L17.5103 27.6715L18.1868 26.6604L17.5103 25.9912L14.957 23.4379L16.5283 21.8739L17.5103 20.8846L18.0922 20.3027L17.5103 19.7207L16.5283 18.7387L14.957 17.1675L16.5283 15.6035L17.5103 14.6142L18.0922 14.0323L17.5103 13.4503L16.5283 12.461L17.5103 11.479L18.4996 12.461L20.0636 14.0323L17.5103 16.5855L16.9284 17.1675L20.0636 20.3027L18.4996 21.8739L17.5103 22.856Z" fill="#60CC46"/>
<path d="M16.8402 26.6603L17.5095 27.6714L16.6729 28.9299L15.0508 26.4857L16.5275 25.009L17.5095 25.9911L16.8402 26.6603Z" fill="#44C129"/>
<path d="M16.9284 14.0322L17.5103 14.6141L16.5283 15.6034L14.957 14.0322L16.5283 12.4609L17.5103 13.4502L16.9284 14.0322Z" fill="#44C129"/>
<path d="M16.9284 20.3027L17.5103 20.8847L16.5283 21.874L14.957 20.3027L16.5283 18.7388L17.5103 19.7208L16.9284 20.3027Z" fill="#44C129"/>
<path d="M20.063 23.438L18.4991 25.0092L17.5098 24.0199L18.0917 23.438L17.5098 22.856L18.4991 21.874L20.063 23.438Z" fill="#44C129"/>
<path d="M20.063 17.1675L18.4991 18.7387L17.5098 17.7494L18.0917 17.1675L17.5098 16.5855L18.4991 15.6035L20.063 17.1675Z" fill="#44C129"/>
<path d="M23.8457 8.43815L30.0142 11.1151L26.7481 12.0898L22.4781 9.52929C22.1144 9.34743 21.8089 9.85663 22.1507 10.0894L25.737 12.3954L24.4785 12.7663C23.5183 13.05 22.4781 12.8755 21.6779 12.2717C21.6706 12.2644 21.6706 12.2644 21.6634 12.2571C21.1687 11.8789 20.6013 11.457 20.0194 11.0496C19.2629 10.5186 18.39 10.2567 17.5098 10.2567V6.43773C17.6043 6.43773 17.6916 6.43772 17.7862 6.43045C19.1537 6.34316 20.9796 5.98672 22.2017 4.81556C22.289 4.72827 22.4272 4.70645 22.5436 4.75009L35.0189 9.62386L31.1563 10.7732L24.1075 7.84166C23.722 7.70345 23.4819 8.25629 23.8457 8.43815Z" fill="#1C94D1"/>
<path d="M17.5092 6.43768V10.2567C16.629 10.2567 15.7488 10.5185 14.9995 11.0496C14.4176 11.4569 13.8502 11.8788 13.3556 12.2571C13.3483 12.2644 13.341 12.2644 13.341 12.2716C12.5408 12.8754 11.5006 13.05 10.5404 12.7663L9.28197 12.3953L12.8682 10.0894C13.2028 9.86386 12.9046 9.34739 12.5408 9.52924L8.27085 12.0898L5.0047 11.115L11.1733 8.4381C11.537 8.25625 11.2969 7.69613 10.9114 7.84161L3.86264 10.7731L0 9.62381L12.4827 4.74277C12.599 4.69912 12.73 4.72095 12.8245 4.80824C14.0466 5.9794 15.8652 6.33584 17.24 6.42313C17.3273 6.4304 17.4146 6.43768 17.5092 6.43768Z" fill="#007FCB"/>
<path opacity="0.35" d="M22.543 4.75L31.163 10.7804L35.0256 9.63103L22.543 4.75Z" fill="#007FCB"/>
<path opacity="0.35" d="M12.4827 4.75L3.86264 10.7804L0 9.63103L12.4827 4.75Z" fill="#007FCB"/>
<path d="M18.3016 0C18.3016 0.574667 18.1488 1.11296 17.8797 1.57851C17.6032 2.05861 17.2031 2.4587 16.723 2.73512C16.2575 3.00427 15.7192 3.15703 15.1445 3.15703V1.57851C16.0174 1.57851 16.723 0.872912 16.723 0H18.3016Z" fill="#1C94D1"/>
<path d="M19.8738 1.57129V3.14981C19.0009 3.14981 18.2953 3.85541 18.2953 4.72832H16.7168C16.7168 4.15366 16.8696 3.61536 17.1387 3.14981C17.4151 2.6697 17.8152 2.26962 18.2953 1.9932C18.7609 1.73132 19.2992 1.57129 19.8738 1.57129Z" fill="#60CC46"/>
<path opacity="0.5" d="M18.3012 0H16.7227V4.72827H18.3012V0Z" fill="#0071B3"/>
<path d="M22.8269 32.8141C17.7713 37.6806 10.8607 38.7063 7.3909 35.1055C5.73237 33.3888 5.15769 30.9228 5.55778 28.2895C5.49231 30.3045 6.08153 32.1376 7.38362 33.4906C10.6352 36.8586 17.0948 35.9057 21.823 31.352C26.5513 26.7983 27.7443 20.3751 24.5 16.9998C23.9326 16.4106 23.2634 15.9523 22.5287 15.625C23.7435 15.9596 24.8273 16.5707 25.7002 17.4727C29.1555 21.0734 27.8752 27.9403 22.8269 32.8141Z" fill="#1C94D1"/>
<path d="M12.2725 16.5999L13.9238 17.7783C13.9238 17.7783 3.72526 23.5177 8.56265 31.5703C8.65721 31.6794 1.0556 24.798 12.2725 16.5999Z" fill="#44C129"/>
</svg>
