<svg width="140" height="39" viewBox="0 0 140 39" fill="none" xmlns="http://www.w3.org/2000/svg">
<g id="Frame" clip-path="url(#clip0_1_475)">
<g id="Group">
<g id="Group_2">
<g id="Group_3">
<path id="Vector" d="M45.2436 6.43592C45.1475 6.7241 45.0194 7.01227 44.8593 7.28978C42.9382 10.6732 40.985 14.0886 40.6221 14.729C40.6221 14.729 39.843 16.0951 38.6049 18.2725C37.9004 19.4999 36.641 20.3324 35.2321 20.4605C35.1147 20.4711 35.0507 20.4711 35.0507 20.4711C33.7486 20.3964 32.4998 19.9268 31.3044 19.0516C31.3898 18.9556 31.4538 18.8702 31.5179 18.8061C32.2223 18.1444 32.9267 17.4827 33.6418 16.8316C33.7806 16.7035 33.8019 16.6075 33.6418 16.4687C33.4604 16.5541 33.279 16.6395 33.0868 16.7355C32.1369 17.2052 31.187 17.6641 30.2371 18.1444C30.0663 18.2298 29.9276 18.2191 29.7568 18.123C29.0737 17.7388 28.38 17.3652 27.6862 16.9917C27.6222 16.949 27.5154 16.9917 27.4194 16.9917C27.4514 17.0771 27.4514 17.2052 27.5154 17.2585C28.1345 17.7388 28.7642 18.2084 29.4046 18.6781C29.5647 18.7955 29.6181 18.9129 29.6074 19.105C29.554 20.3004 29.5007 21.4851 29.4686 22.6805C29.4686 22.7765 29.5433 22.8833 29.586 22.9793C29.6501 22.9046 29.7461 22.8406 29.7782 22.7552C30.0983 21.8587 30.4079 20.9514 30.7174 20.0442C30.8241 19.724 30.8455 19.7133 31.1443 19.8948C32.265 20.5885 33.1189 21.4851 33.6845 22.5631C34.2822 24.2494 34.1221 26.1173 33.2256 27.6755C32.9054 28.2305 32.5852 28.7962 32.265 29.3726C31.091 31.4432 29.8849 33.5458 28.7322 35.5737C26.8644 38.8503 22.1362 38.8503 20.2577 35.5737C18.8061 33.0335 17.3439 30.4612 16.1485 28.3586C15.7536 27.6755 15.7536 26.8324 16.1272 26.1386L19.628 19.7347L23.5984 26.7043C23.9186 27.27 24.7404 27.2806 25.0713 26.715C25.5516 25.9038 26.288 24.655 26.8964 23.6304C27.4301 22.7339 27.5368 21.6559 27.2059 20.6846C27.1312 20.4498 27.0245 20.215 26.8857 20.0015L23.9613 15.1132L23.7798 14.8144C25.8824 14.825 28.0171 14.793 30.0877 14.5262C31.4432 14.3341 32.5425 13.5549 33.2469 12.3809C34.1542 10.8866 35.04 9.37105 35.9152 7.86613C36.3208 7.1617 35.8192 6.2865 35.008 6.2865H25.1246C24.527 6.2865 23.9719 6.60669 23.6731 7.12968C21.5705 10.8226 19.3184 14.7717 18.0483 17.0024C16.9917 18.7741 16.0098 20.6206 14.9531 22.403C14.6543 22.894 14.1099 23.0754 13.619 22.958C13.3094 22.8833 13.0319 22.6912 12.8505 22.3816C12.4876 21.7626 12.1354 21.1436 11.7725 20.5138C11.1001 19.3611 10.4277 18.1978 9.74461 17.0237C6.48929 11.3563 3.16993 5.59274 0 0.0106732H7.68468C8.12228 0.0106732 8.52787 0.245483 8.74133 0.619044C9.66989 2.24137 10.7052 4.06648 11.7832 5.95563C12.4769 7.1617 13.1814 8.39979 13.8751 9.6272C14.8677 7.8768 17.1091 3.95975 18.4966 1.51559C18.7528 1.07799 18.9769 0.683083 19.1583 0.362888C19.3718 0.170771 19.6707 0.0320195 19.9055 0.0320195C21.1222 0.0320195 22.3283 0.0213463 23.545 0.0213463C24.9432 0.0213463 26.3521 0.0106732 27.7502 0.0106732C28.6468 0.0106732 29.5433 0.0106732 30.4506 0.0106732C33.8446 0.0106732 37.2387 0.0106732 40.6221 0.0106732L40.6328 0C44.0482 0 46.3002 3.37272 45.2436 6.43592Z" fill="url(#paint0_linear_1_475)"/>
<path id="Vector_2" opacity="0.5" d="M13.8751 9.62727L0 0.0107422H7.68468C8.12228 0.0107422 8.51719 0.245552 8.74133 0.619113C9.66989 2.24144 10.7052 4.06655 11.7832 5.9557C12.4663 7.16177 13.1707 8.39986 13.8751 9.62727Z" fill="url(#paint1_linear_1_475)"/>
<path id="Vector_3" d="M45.2418 6.43592C45.1457 6.7241 45.0177 7.01227 44.8576 7.28978C42.9364 10.6732 40.9832 14.0886 40.6203 14.729C40.6203 14.729 39.8412 16.0951 38.6031 18.2725C37.8987 19.4999 36.6392 20.3324 35.2304 20.4605C35.113 20.4711 35.0489 20.4711 35.0489 20.4711C33.7468 20.3964 32.498 19.9268 31.3026 19.0516C31.388 18.9556 31.4521 18.8702 31.5161 18.8061C32.2205 18.1444 32.925 17.4827 33.6401 16.8316C33.7788 16.7035 33.8002 16.6075 33.6401 16.4687C33.4586 16.5541 33.2772 16.6395 33.0851 16.7355C32.1351 17.2052 31.1852 17.6641 30.2353 18.1444C30.0645 18.2298 29.9258 18.2191 29.755 18.123C29.0719 17.7388 28.3782 17.3652 27.6844 16.9917C27.6204 16.949 27.5137 16.9917 27.4176 16.9917C27.4496 17.0771 27.4496 17.2052 27.5137 17.2585C28.1327 17.7388 28.7624 18.2084 29.4028 18.6781C29.5629 18.7955 29.6163 18.9129 29.6056 19.105C29.5522 20.3004 29.4989 21.4851 29.4668 22.6805C29.4668 22.7765 29.5416 22.8833 29.5843 22.9793C29.6483 22.9046 29.7444 22.8406 29.7764 22.7552C30.0966 21.8587 30.4061 20.9514 30.7156 20.0442C30.8223 19.724 30.8437 19.7133 31.1425 19.8948C32.2632 20.5885 33.1171 21.4851 33.6828 22.5631C34.2805 24.2494 34.1203 26.1173 33.2238 27.6755C32.9036 28.2305 32.5834 28.7962 32.2632 29.3726C31.0892 31.4432 29.8831 33.5458 28.7304 35.5737C26.8626 38.8503 22.1344 38.8503 20.2559 35.5737C18.8043 33.0335 17.3421 30.4612 16.1467 28.3586C15.7518 27.6755 15.7518 26.8324 16.1254 26.1386L19.6262 19.7347L23.5966 26.7043C23.9168 27.27 24.7386 27.2806 25.0695 26.715C25.5498 25.9038 26.2862 24.655 26.8946 23.6304C27.4283 22.7339 27.535 21.6559 27.2041 20.6846C27.1294 20.4498 27.0227 20.215 26.8839 20.0015L23.9595 15.1132L23.778 14.8144C25.8807 14.825 28.0153 14.793 30.0859 14.5262C31.4414 14.3341 32.5407 13.5549 33.2452 12.3809C34.1524 10.8866 35.0382 9.37105 35.9134 7.86613C36.319 7.1617 35.8174 6.2865 35.0062 6.2865H25.1229C24.5252 6.2865 23.9702 6.60669 23.6713 7.12968C21.5687 10.8226 19.3167 14.7717 18.0466 17.0024C16.9899 18.7741 16.008 20.6206 14.9513 22.403C14.6525 22.894 14.1082 23.0754 13.6172 22.958L19.1459 0.362888C19.3594 0.170771 19.6582 0.0320195 19.893 0.0320195C21.1098 0.0320195 22.3158 0.0213463 23.5326 0.0213463C24.9308 0.0213463 26.3396 0.0106732 27.7378 0.0106732C28.6343 0.0106732 29.5309 0.0106732 30.4381 0.0106732C33.8322 0.0106732 37.2262 0.0106732 40.6096 0.0106732L40.6203 0C44.0464 0 46.2984 3.37272 45.2418 6.43592Z" fill="url(#paint2_linear_1_475)"/>
</g>
<path id="Vector_4" opacity="0.47" d="M32.2737 29.3725C31.0997 31.4431 29.8936 33.5457 28.7409 35.5736C26.8731 38.8503 22.1449 38.8503 20.2664 35.5736C18.8149 33.0334 17.3526 30.4612 16.1466 28.3585C15.7517 27.6755 15.7517 26.8323 16.1252 26.1385L19.626 19.7346L23.5964 26.7042C23.9166 27.2699 24.7385 27.2806 25.0693 26.7149C25.5496 25.9037 26.2861 24.655 26.8944 23.6303C27.4281 22.7338 27.5348 21.6558 27.204 20.6845L32.2737 29.3725Z" fill="url(#paint3_linear_1_475)"/>
<path id="Vector_5" opacity="0.25" d="M45.2443 6.43592L19.1484 0.362888C19.3619 0.170771 19.6607 0.0320195 19.8956 0.0320195C21.1123 0.0320195 22.3184 0.0213463 23.5351 0.0213463C24.9333 0.0213463 26.3422 0.0106732 27.7403 0.0106732C28.6369 0.0106732 29.5441 0.0106732 30.4407 0.0106732C33.8347 0.0106732 37.2288 0.0106732 40.6122 0.0106732L40.6229 0C44.049 0 46.301 3.37272 45.2443 6.43592Z" fill="url(#paint4_linear_1_475)"/>
</g>
<g id="Group_4">
<g id="Group_5">
<g id="Group_6">
<g id="Group_7">
<g id="Group_8">
<path id="Vector_6" d="M65.5992 8.6665C65.5565 8.83727 65.5031 8.99737 65.4604 9.16814C64.6706 11.8791 63.8168 14.43 62.8775 16.8208C62.8455 16.8955 62.8135 16.9809 62.7815 17.0556C61.8102 19.4891 60.871 21.6664 59.9424 23.5556H56.9966C56.1001 21.7198 55.1929 19.6279 54.2536 17.2904C54.1896 17.141 54.1362 16.9809 54.0722 16.8315C53.0689 14.3019 52.1617 11.5803 51.3398 8.67718H55.0114C55.2249 9.50969 55.4597 10.4062 55.7372 11.3668C56.0147 12.3274 56.3135 13.288 56.6231 14.2379C56.9326 15.1985 57.2635 16.1271 57.5943 17.0343C57.6157 17.0876 57.637 17.1517 57.6584 17.205C57.9679 18.0375 58.2561 18.7953 58.5229 19.4678C58.7897 18.7847 59.0886 18.0055 59.3874 17.1623C59.3981 17.1197 59.4194 17.077 59.4301 17.0343C59.7503 16.1377 60.0705 15.1985 60.3907 14.2379C60.7002 13.2773 61.0097 12.3274 61.2872 11.3668C61.5754 10.4062 61.8209 9.50969 62.0344 8.67718H65.5992V8.6665Z" fill="url(#paint5_linear_1_475)"/>
<path id="Vector_7" d="M70.5842 11.196V23.5449H67.1367V11.196C67.6384 11.5269 68.2254 11.6977 68.8764 11.6977C69.5168 11.6977 70.0825 11.5376 70.5842 11.196Z" fill="url(#paint6_linear_1_475)"/>
<path id="Vector_8" d="M95.5918 11.7832C95.389 11.0574 95.0582 10.4277 94.5992 9.92603C94.1296 9.41372 93.5106 9.01881 92.7314 8.73064C91.9523 8.44246 90.9917 8.30371 89.8603 8.30371C88.9104 8.30371 88.0139 8.37842 87.1814 8.52785C86.3489 8.67727 85.7085 8.8267 85.2709 8.98679C83.7446 9.5418 82.1009 9.01881 82.1009 9.01881C81.706 8.86939 81.1083 8.70929 80.3079 8.54919C79.5074 8.3891 78.6749 8.30371 77.7997 8.30371C76.0706 8.30371 74.7044 8.69862 73.7012 9.48843C72.6979 10.2782 72.1962 11.3562 72.1962 12.7224C72.1962 13.4268 72.303 14.0139 72.5271 14.5048C72.7406 14.9851 73.0394 15.4014 73.4237 15.7429C73.8079 16.0845 74.2562 16.3833 74.7791 16.6395C74.8539 16.6715 74.9286 16.7142 75.0033 16.7462C75.4622 16.9597 75.9639 17.1624 76.4975 17.3652C77.5222 17.7388 78.2586 18.091 78.7069 18.4219C79.1552 18.7421 79.3793 19.1477 79.3793 19.6493C79.3793 20.183 79.1658 20.5565 78.7496 20.77C78.3333 20.9834 77.6716 21.1008 76.7537 21.1008C75.8465 21.1008 75.0353 21.0048 74.3202 20.8127C73.6051 20.6206 72.9967 20.4284 72.4844 20.215L71.8867 23.0861C72.2069 23.2248 72.7726 23.3956 73.5624 23.609C74.3629 23.8225 75.4089 23.9399 76.7217 23.9399C78.6749 23.9399 80.1798 23.577 81.2364 22.8406C82.2931 22.1148 82.816 21.0368 82.816 19.6066C82.816 18.9449 82.7307 18.3685 82.5599 17.8989C82.3891 17.4293 82.1223 17.0023 81.7487 16.6288C81.7274 16.6074 81.706 16.5861 81.674 16.5647C81.3111 16.2232 80.8735 15.9137 80.3399 15.6362C79.7635 15.3373 79.0804 15.0492 78.2586 14.7396C77.7676 14.5689 77.3514 14.3981 77.0098 14.238C76.6683 14.0779 76.3908 13.9178 76.188 13.7577C75.9745 13.5976 75.8358 13.4162 75.7504 13.2347C75.665 13.0426 75.6223 12.8291 75.6223 12.573C75.6223 12.082 75.8465 11.7191 76.2734 11.4843C76.711 11.2495 77.2767 11.1321 77.9811 11.1321C78.7602 11.1321 79.4433 11.2068 80.0303 11.3456C80.6174 11.4843 81.1083 11.6444 81.4819 11.8152C83.0936 12.6797 84.6625 12.2314 85.3456 11.9539C85.8686 11.7405 86.4129 11.559 86.9786 11.4523C87.0853 11.431 87.2134 11.4096 87.3308 11.3883C87.9925 11.2709 88.729 11.2175 89.5188 11.2175C90.1058 11.2175 90.5968 11.2922 90.981 11.4416C91.3653 11.591 91.6855 11.8045 91.9203 12.082C92.1551 12.3595 92.3258 12.6797 92.4219 13.0319C92.518 13.3948 92.5607 13.7684 92.5607 14.174V14.7396C92.091 14.6222 91.6428 14.5475 91.2265 14.4942C90.8103 14.4515 90.4047 14.4194 90.0311 14.4194C89.2199 14.4194 88.4301 14.5048 87.683 14.6649C86.9359 14.825 86.2742 15.0918 85.7085 15.4654C85.2815 15.7429 84.9187 16.0845 84.6305 16.4794C84.5344 16.6074 84.449 16.7569 84.3637 16.8956C84.0328 17.4826 83.862 18.2084 83.862 19.0623C83.862 19.9481 84.0114 20.7059 84.2996 21.3143C84.5985 21.9227 85.004 22.4136 85.527 22.7979C86.05 23.1821 86.6797 23.4489 87.4162 23.6197C88.1633 23.7905 88.9745 23.8759 89.8603 23.8759C91.2052 23.8759 92.4112 23.8012 93.4892 23.6304C94.5565 23.4703 95.357 23.3315 95.8907 23.2141V14.1953C95.8907 13.3094 95.7946 12.5196 95.5918 11.7832ZM92.5607 20.9621C92.0056 21.0795 91.2052 21.1329 90.1378 21.1329C89.2626 21.1329 88.5689 20.9834 88.0566 20.6632C87.5443 20.3537 87.2881 19.788 87.2881 18.9769C87.2881 18.5606 87.3842 18.2084 87.5763 17.9416C87.7684 17.6641 88.0139 17.4506 88.3341 17.3012C88.6543 17.1518 88.9958 17.045 89.3907 16.9917C89.7856 16.9276 90.1699 16.9063 90.5434 16.9063C90.981 16.9063 91.3759 16.9276 91.7388 16.9917C92.1017 17.045 92.3685 17.0984 92.5607 17.1624V20.9621Z" fill="url(#paint7_linear_1_475)"/>
<path id="Vector_9" d="M110.781 15.7749C110.759 14.7503 110.61 13.811 110.343 12.9465C110.044 11.9859 109.628 11.1747 109.073 10.481C108.518 9.79791 107.835 9.27492 107.013 8.90136C106.191 8.5278 105.252 8.34635 104.206 8.34635C103.501 8.34635 102.861 8.43174 102.285 8.60251C101.708 8.77328 101.217 8.9654 100.822 9.16819V1.46216L97.375 2.02784V23.086C98.0581 23.2995 98.9119 23.4809 99.9472 23.6517C100.983 23.8225 102.071 23.9078 103.203 23.9078C104.377 23.9078 105.433 23.7264 106.362 23.3635C107.29 23.0006 108.091 22.4776 108.742 21.7946C109.393 21.1115 109.895 20.2896 110.247 19.3291C110.599 18.3685 110.77 17.2905 110.77 16.0951C110.791 16.0097 110.791 15.8923 110.781 15.7749ZM106.18 19.6386C105.455 20.5031 104.462 20.93 103.192 20.93C102.648 20.93 102.178 20.9087 101.783 20.8553C101.399 20.8126 101.079 20.7593 100.833 20.6952V12.1247C101.132 11.9112 101.538 11.7298 102.039 11.559C102.541 11.3882 103.074 11.3028 103.651 11.3028C104.9 11.3028 105.817 11.7298 106.394 12.5836C106.949 13.4054 107.237 14.4941 107.258 15.8603C107.258 15.9243 107.258 15.9883 107.258 16.0524C107.258 17.5893 106.895 18.774 106.18 19.6386Z" fill="url(#paint8_linear_1_475)"/>
<path id="Vector_10" d="M139.98 15.0064C139.852 12.9251 139.286 11.3241 138.283 10.2035C137.13 8.93336 135.54 8.29297 133.49 8.29297C132.615 8.29297 131.761 8.46374 130.929 8.79461C130.096 9.12548 129.349 9.61644 128.709 10.2782C128.058 10.9292 127.545 11.7511 127.151 12.7437C126.852 13.5228 126.66 14.398 126.596 15.3693C126.574 15.6361 126.574 15.9136 126.574 16.1911C126.574 17.3118 126.724 18.3364 127.033 19.2757C127.332 20.2149 127.802 21.0261 128.431 21.7198C129.061 22.4136 129.851 22.9579 130.822 23.3421C131.793 23.7264 132.935 23.9292 134.238 23.9292C134.75 23.9292 135.252 23.8971 135.753 23.8438C136.244 23.7904 136.703 23.7157 137.13 23.6303C137.557 23.5449 137.93 23.4489 138.272 23.3421C138.603 23.2354 138.859 23.1394 139.051 23.0433L138.592 20.2256C138.187 20.3963 137.642 20.5564 136.959 20.7059C136.265 20.8553 135.508 20.9407 134.664 20.9407C133.245 20.9407 132.156 20.6098 131.409 19.9587C130.662 19.3077 130.235 18.3791 130.139 17.1837H139.958C139.98 16.9916 139.99 16.7781 140.001 16.5433C140.012 16.3085 140.012 16.0951 140.012 15.9029C140.001 15.5934 140.001 15.2946 139.98 15.0064ZM130.47 13.3627C130.619 12.9465 130.833 12.5729 131.11 12.2527C131.388 11.9325 131.719 11.6657 132.124 11.4736C132.519 11.2708 132.989 11.1747 133.522 11.1747C134.035 11.1747 134.472 11.2601 134.846 11.4416C135.219 11.623 135.529 11.8685 135.785 12.1887C136.041 12.4982 136.233 12.8718 136.372 13.2987C136.5 13.7256 136.575 14.1739 136.575 14.6542H130.171C130.214 14.2059 130.321 13.779 130.47 13.3627Z" fill="url(#paint9_linear_1_475)"/>
<path id="Vector_11" d="M126.225 19.0088C125.392 19.7239 124.058 20.2256 124.058 20.2256C123.663 20.3963 123.119 20.5564 122.425 20.7059C121.731 20.8553 120.963 20.9407 120.13 20.9407C118.711 20.9407 117.622 20.6098 116.875 19.9587C116.128 19.3077 115.701 18.3791 115.605 17.1837H125.424C125.446 16.9916 125.456 16.7781 125.467 16.5433C125.478 16.3085 125.478 16.0951 125.478 15.9029C125.478 15.7322 125.478 15.5614 125.467 15.3906C125.392 13.1172 124.827 11.3882 123.759 10.2035C122.607 8.93336 121.016 8.29297 118.967 8.29297C118.092 8.29297 117.238 8.46374 116.405 8.79461C115.573 9.12548 114.826 9.61644 114.185 10.2782C113.545 10.9292 113.022 11.7511 112.638 12.7437C112.296 13.6189 112.104 14.6222 112.061 15.7535C112.061 15.9029 112.051 16.0417 112.051 16.1911C112.051 17.3118 112.2 18.3364 112.51 19.2757C112.809 20.2149 113.278 21.0261 113.908 21.7198C114.538 22.4136 115.327 22.9579 116.299 23.3421C117.27 23.7264 118.401 23.9292 119.714 23.9292C120.226 23.9292 120.728 23.8971 121.219 23.8438C121.71 23.7904 122.169 23.7157 122.596 23.6303C123.023 23.5449 123.396 23.4489 123.738 23.3421C124.069 23.2354 124.336 23.1394 124.517 23.0433C125.456 22.7018 127.271 21.3569 127.281 21.3569C126.331 20.0655 126.267 18.9448 126.225 19.0088ZM115.936 13.3627C116.085 12.9465 116.299 12.5729 116.576 12.2527C116.854 11.9325 117.185 11.6657 117.59 11.4736C117.985 11.2708 118.455 11.1747 118.988 11.1747C119.501 11.1747 119.938 11.2601 120.312 11.4416C120.685 11.623 120.995 11.8685 121.251 12.1887C121.507 12.4982 121.699 12.8718 121.838 13.2987C121.977 13.7256 122.041 14.1739 122.041 14.6542H115.637C115.68 14.2059 115.786 13.779 115.936 13.3627Z" fill="url(#paint10_linear_1_475)"/>
</g>
</g>
<g id="Group_9">
<path id="Vector_12" d="M59.0879 31.4858C58.9705 31.5498 58.8104 31.6139 58.5969 31.6779C58.3835 31.7419 58.1166 31.7846 57.7751 31.7846C57.4976 31.7846 57.2521 31.7419 57.0493 31.6459C56.8465 31.5498 56.6864 31.4217 56.5477 31.251C56.4196 31.0802 56.3235 30.8881 56.2595 30.6533C56.1955 30.4185 56.1634 30.1623 56.1634 29.8955C56.1634 29.586 56.2061 29.3085 56.2808 29.0737C56.3662 28.8388 56.473 28.6361 56.6117 28.4866C56.7505 28.3265 56.9212 28.2198 57.124 28.1344C57.3161 28.0597 57.5296 28.017 57.7537 28.017C58.0099 28.017 58.2554 28.049 58.4795 28.1237C58.7037 28.1878 58.8744 28.2625 58.9918 28.3372L59.2693 27.5581C59.2373 27.5367 59.1733 27.5047 59.0879 27.462C59.0025 27.4193 58.8958 27.3766 58.7677 27.3339C58.6396 27.2912 58.4795 27.2592 58.3087 27.2272C58.138 27.1952 57.9352 27.1738 57.7217 27.1738C57.3588 27.1738 57.028 27.2379 56.7184 27.3553C56.4089 27.4727 56.1314 27.6541 55.9073 27.8889C55.6725 28.1237 55.491 28.4119 55.3629 28.7428C55.2242 29.0843 55.1602 29.4686 55.1602 29.9062C55.1602 30.3438 55.2135 30.728 55.3309 31.0695C55.4483 31.4111 55.6084 31.6886 55.8326 31.9234C56.046 32.1582 56.3129 32.329 56.6224 32.457C56.9319 32.5745 57.2841 32.6385 57.679 32.6385C57.8818 32.6385 58.0739 32.6278 58.2447 32.6065C58.4155 32.5851 58.5756 32.5531 58.725 32.5211C58.8637 32.4784 58.9918 32.4464 59.0879 32.4037C59.1946 32.361 59.2693 32.3183 59.3334 32.2863L59.0879 31.4858Z" fill="#20EDED"/>
<path id="Vector_13" d="M68.0321 28.7109C67.8933 28.3694 67.7119 28.0812 67.4877 27.8571C67.2529 27.6223 66.9861 27.4515 66.6873 27.3341C66.3777 27.2167 66.0575 27.1633 65.716 27.1633C65.3745 27.1633 65.0543 27.2167 64.7447 27.3341C64.4352 27.4515 64.1684 27.6223 63.9336 27.8571C63.6988 28.0919 63.5173 28.3801 63.3786 28.7109C63.2398 29.0525 63.1758 29.4474 63.1758 29.8957C63.1758 30.3439 63.2398 30.7388 63.3786 31.0804C63.5173 31.4219 63.6988 31.7101 63.9229 31.9342C64.147 32.1584 64.4245 32.3291 64.7341 32.4466C65.0436 32.564 65.3745 32.6173 65.716 32.6173C66.0682 32.6173 66.3884 32.564 66.6979 32.4466C67.0075 32.3291 67.2743 32.1584 67.4984 31.9342C67.7332 31.6994 67.9147 31.4219 68.0427 31.0804C68.1708 30.7388 68.2455 30.3439 68.2455 29.8957C68.2349 29.4474 68.1602 29.0525 68.0321 28.7109ZM67.1355 30.6748C67.0608 30.9096 66.9648 31.1124 66.826 31.2725C66.6979 31.4326 66.5272 31.5607 66.335 31.6567C66.1429 31.7421 65.9295 31.7955 65.6946 31.7955C65.4492 31.7955 65.2357 31.7528 65.0436 31.6567C64.8515 31.5607 64.6914 31.4433 64.5526 31.2725C64.4245 31.1124 64.3178 30.9096 64.2431 30.6748C64.1684 30.44 64.1364 30.1838 64.1364 29.8957C64.1364 29.6075 64.1684 29.3513 64.2431 29.1165C64.3071 28.8817 64.4139 28.6896 64.5526 28.5188C64.6807 28.3481 64.8515 28.22 65.0436 28.1346C65.2357 28.0492 65.4492 27.9958 65.6946 27.9958C65.9295 27.9958 66.1429 28.0385 66.335 28.1346C66.5272 28.2306 66.6872 28.3481 66.826 28.5188C66.9541 28.6789 67.0608 28.8817 67.1355 29.1165C67.2102 29.3513 67.2423 29.6075 67.2423 29.8957C67.2316 30.1838 67.1996 30.44 67.1355 30.6748Z" fill="#20EDED"/>
<path id="Vector_14" d="M75.9839 27.2808V30.7495C75.8131 30.4827 75.621 30.1839 75.3969 29.8743C75.1728 29.5541 74.9486 29.2446 74.7138 28.9351C74.479 28.6256 74.2442 28.3267 74.0201 28.0386C73.7852 27.7504 73.5718 27.4942 73.369 27.2914H72.5898V32.5213H73.5291V28.775C73.7426 29.0312 73.9667 29.3087 74.2015 29.6289C74.4363 29.9491 74.6604 30.2693 74.8953 30.6001C75.1194 30.931 75.3435 31.2725 75.557 31.5927C75.7705 31.9236 75.9626 32.2331 76.1333 32.5213H76.9445V27.2914H75.9839V27.2808Z" fill="#20EDED"/>
<path id="Vector_15" d="M84.6401 30.504C84.5654 30.3332 84.4693 30.1838 84.3306 30.0557C84.2025 29.9276 84.0317 29.8209 83.8396 29.7248C83.6475 29.6288 83.4234 29.5434 83.1779 29.4473C83.0391 29.394 82.9004 29.3406 82.783 29.2872C82.6656 29.2339 82.5588 29.1698 82.4734 29.1058C82.3881 29.0417 82.3133 28.967 82.2707 28.8816C82.228 28.7963 82.1959 28.7002 82.1959 28.5828C82.1959 28.3907 82.2707 28.2413 82.4094 28.1345C82.5588 28.0278 82.751 27.9744 83.0071 27.9744C83.2206 27.9744 83.434 27.9958 83.6368 28.0491C83.8396 28.1025 84.0317 28.1772 84.2025 28.2626L84.5014 27.4941C84.3519 27.4087 84.1598 27.334 83.9037 27.2593C83.6475 27.1846 83.3593 27.1526 83.0285 27.1526C82.4628 27.1526 82.0145 27.2913 81.6943 27.5582C81.3634 27.825 81.2033 28.1986 81.2033 28.6682C81.2033 28.8923 81.246 29.0844 81.3207 29.2552C81.3955 29.4153 81.5022 29.5541 81.6303 29.6715C81.7583 29.7889 81.9078 29.8849 82.0785 29.9596C82.2493 30.0343 82.4201 30.1091 82.6015 30.1731C82.783 30.2371 82.9431 30.2905 83.0818 30.3545C83.2206 30.4186 83.338 30.4826 83.4447 30.5573C83.5408 30.632 83.6155 30.7068 83.6688 30.8028C83.7222 30.8882 83.7436 31.0056 83.7436 31.123C83.7436 31.3365 83.6688 31.4966 83.5087 31.614C83.3487 31.7314 83.1032 31.7847 82.7616 31.7847C82.4308 31.7847 82.1533 31.7421 81.9184 31.6673C81.6836 31.5926 81.5022 31.5179 81.3634 31.4432L81.0859 32.2223C81.15 32.2544 81.2247 32.2971 81.3314 32.3398C81.4382 32.3824 81.5556 32.4251 81.6943 32.4678C81.8331 32.5105 81.9932 32.5425 82.1746 32.5639C82.356 32.5959 82.5482 32.6066 82.7616 32.6066C83.402 32.6066 83.893 32.4785 84.2345 32.2223C84.5654 31.9662 84.7362 31.5926 84.7362 31.123C84.7362 30.8882 84.7041 30.6854 84.6401 30.504Z" fill="#20EDED"/>
<path id="Vector_16" d="M92.0361 27.2808V30.4614C92.0361 30.6962 92.0041 30.899 91.9507 31.0697C91.8973 31.2405 91.8226 31.3793 91.7266 31.486C91.6305 31.5927 91.5131 31.6674 91.3743 31.7208C91.2356 31.7742 91.0862 31.7955 90.9154 31.7955C90.7446 31.7955 90.5952 31.7742 90.4671 31.7208C90.339 31.6674 90.2216 31.5927 90.1256 31.486C90.0295 31.3793 89.9548 31.2405 89.9014 31.0697C89.8481 30.899 89.8161 30.6962 89.8161 30.4614V27.2808H88.8555V30.5468C88.8555 30.8456 88.8982 31.1231 88.9729 31.3793C89.0583 31.6354 89.1757 31.8489 89.3464 32.041C89.5172 32.2224 89.7307 32.3719 89.9868 32.4786C90.243 32.5853 90.5525 32.628 90.9047 32.628C91.2676 32.628 91.5771 32.5747 91.8333 32.4786C92.0894 32.3719 92.3136 32.2331 92.4843 32.041C92.6551 31.8596 92.7832 31.6354 92.8579 31.3793C92.9433 31.1231 92.986 30.8563 92.986 30.5468V27.2808H92.0361Z" fill="#20EDED"/>
<path id="Vector_17" d="M98.4812 31.6888V27.2808H97.5312V32.5106H100.84V31.6888H98.4812Z" fill="#20EDED"/>
<path id="Vector_18" d="M103.574 27.2808V28.1026H105.186V32.5106H106.146V28.1026H107.758V27.2808H103.574Z" fill="#20EDED"/>
<path id="Vector_19" d="M115.303 30.963C115.121 30.4934 114.951 30.0451 114.78 29.6182C114.609 29.1913 114.449 28.7964 114.278 28.4121C114.107 28.0279 113.937 27.6543 113.766 27.2808H112.859C112.688 27.6543 112.517 28.0279 112.346 28.4121C112.176 28.7964 112.015 29.2019 111.845 29.6182C111.674 30.0451 111.503 30.4934 111.332 30.963C111.162 31.4326 110.969 31.9556 110.777 32.5106H111.77C111.845 32.3078 111.919 32.105 111.983 31.9022C112.058 31.6995 112.133 31.486 112.197 31.2832H114.406C114.481 31.4967 114.545 31.6995 114.63 31.9022C114.705 32.105 114.78 32.3078 114.844 32.5106H115.868C115.676 31.9556 115.484 31.4326 115.303 30.963ZM112.442 30.5147C112.602 30.0665 112.763 29.6502 112.912 29.266C113.061 28.8817 113.189 28.5615 113.307 28.2947C113.414 28.5509 113.552 28.8711 113.702 29.266C113.851 29.6502 114.011 30.0665 114.171 30.5147H112.442Z" fill="#20EDED"/>
<path id="Vector_20" d="M123.233 27.2808V30.7495C123.062 30.4827 122.87 30.1839 122.646 29.8743C122.432 29.5541 122.198 29.2446 121.963 28.9351C121.728 28.6256 121.493 28.3267 121.258 28.0386C121.024 27.7504 120.81 27.4942 120.607 27.2914H119.828V32.5213H120.767V28.775C120.981 29.0312 121.205 29.3087 121.44 29.6289C121.675 29.9491 121.899 30.2693 122.134 30.6001C122.358 30.931 122.582 31.2725 122.785 31.5927C122.998 31.9236 123.19 32.2331 123.361 32.5213H124.172V27.2914H123.233V27.2808Z" fill="#20EDED"/>
<path id="Vector_21" d="M128.23 27.2808V28.1026H129.842V32.5106H130.803V28.1026H132.414V27.2808H128.23Z" fill="#20EDED"/>
<path id="Vector_22" d="M139.575 30.504C139.5 30.3332 139.404 30.1838 139.265 30.0557C139.137 29.9276 138.966 29.8209 138.774 29.7248C138.582 29.6288 138.358 29.5434 138.113 29.4473C137.974 29.394 137.846 29.3406 137.728 29.2872C137.611 29.2339 137.504 29.1698 137.419 29.1058C137.333 29.0417 137.259 28.967 137.216 28.8816C137.173 28.7963 137.141 28.7002 137.141 28.5828C137.141 28.3907 137.216 28.2413 137.355 28.1345C137.493 28.0278 137.696 27.9744 137.952 27.9744C138.166 27.9744 138.379 27.9958 138.582 28.0491C138.785 28.1025 138.977 28.1772 139.148 28.2626L139.447 27.4941C139.297 27.4087 139.094 27.334 138.849 27.2593C138.593 27.1846 138.305 27.1526 137.974 27.1526C137.408 27.1526 136.96 27.2913 136.64 27.5582C136.309 27.825 136.149 28.1986 136.149 28.6682C136.149 28.8923 136.191 29.0844 136.266 29.2552C136.341 29.4153 136.448 29.5541 136.576 29.6715C136.704 29.7889 136.853 29.8849 137.024 29.9596C137.195 30.0343 137.365 30.1091 137.547 30.1731C137.728 30.2371 137.888 30.2905 138.027 30.3545C138.166 30.4186 138.283 30.4826 138.39 30.5573C138.486 30.632 138.561 30.7068 138.614 30.8028C138.668 30.8882 138.689 31.0056 138.689 31.123C138.689 31.3365 138.614 31.4966 138.454 31.614C138.294 31.7314 138.048 31.7847 137.707 31.7847C137.376 31.7847 137.099 31.7421 136.864 31.6673C136.629 31.5926 136.448 31.5179 136.309 31.4432L136.031 32.2223C136.095 32.2544 136.17 32.2971 136.277 32.3398C136.373 32.3824 136.49 32.4251 136.64 32.4678C136.778 32.5105 136.938 32.5425 137.12 32.5639C137.301 32.5959 137.493 32.6066 137.718 32.6066C138.358 32.6066 138.849 32.4785 139.191 32.2223C139.521 31.9662 139.692 31.5926 139.692 31.123C139.681 30.8882 139.649 30.6854 139.575 30.504Z" fill="#20EDED"/>
</g>
<g id="Group_10" opacity="0.25">
<path id="Vector_23" d="M62.77 17.0557C61.7988 19.4891 60.8596 21.6665 59.931 23.5556H56.9852C56.0886 21.7198 55.1814 19.6279 54.2422 17.2905L57.6469 17.2051C57.9564 18.0376 58.2446 18.7954 58.5115 19.4678C58.7783 18.7847 59.0771 18.0056 59.376 17.1624L62.77 17.0557Z" fill="url(#paint11_linear_1_475)"/>
<path id="Vector_24" d="M67.1367 16.9382L70.5842 16.8528V23.5555H67.1367V16.9382Z" fill="url(#paint12_linear_1_475)"/>
<path id="Vector_25" d="M82.5599 17.8883C82.7307 18.3686 82.8161 18.9342 82.8161 19.596C82.8161 21.0155 82.2931 22.0935 81.2364 22.83C80.1798 23.5557 78.6749 23.9293 76.7217 23.9293C75.4089 23.9293 74.3629 23.8226 73.5624 23.5984C72.7619 23.3743 72.2069 23.2035 71.8867 23.0648L72.4844 20.1937C72.9967 20.4071 73.6051 20.5993 74.3202 20.7914C75.0353 20.9835 75.8465 21.0796 76.7537 21.0796C77.6609 21.0796 78.3333 20.9728 78.7496 20.7487C79.1658 20.5352 79.3793 20.1617 79.3793 19.628C79.3793 19.137 79.1552 18.7315 78.7069 18.4006C78.2586 18.0804 77.5222 17.7282 76.4975 17.3439C75.9639 17.1518 75.4622 16.9384 75.0033 16.7249L81.674 16.5435C81.6954 16.5648 81.7167 16.5862 81.7487 16.6075C82.1223 16.9917 82.3891 17.4187 82.5599 17.8883Z" fill="url(#paint13_linear_1_475)"/>
<path id="Vector_26" d="M84.6161 16.4685C84.5201 16.5966 84.4347 16.746 84.3493 16.8848C84.0184 17.4718 83.8477 18.1976 83.8477 19.0514C83.8477 19.9373 83.9971 20.6951 84.2853 21.3035C84.5841 21.9118 84.9897 22.4028 85.5127 22.787C86.0357 23.1713 86.6654 23.4381 87.4018 23.6089C88.1489 23.7796 88.9601 23.865 89.846 23.865C91.1908 23.865 92.3969 23.7903 93.4749 23.6196C94.5422 23.4595 95.3427 23.3207 95.8763 23.2033V16.1697L84.6161 16.4685ZM92.557 20.9619C92.002 21.0793 91.2015 21.1327 90.1342 21.1327C89.259 21.1327 88.5652 20.9833 88.0529 20.6631C87.5406 20.3536 87.2844 19.7879 87.2844 18.9767C87.2844 18.5605 87.3805 18.2083 87.5726 17.9414C87.7647 17.6639 88.0102 17.4505 88.3304 17.301C88.6506 17.1516 88.9921 17.0449 89.387 16.9915C89.7819 16.9275 90.1662 16.9061 90.5397 16.9061C90.9773 16.9061 91.3722 16.9275 91.7351 16.9915C92.098 17.0449 92.3649 17.0982 92.557 17.1623V20.9619Z" fill="url(#paint14_linear_1_475)"/>
<path id="Vector_27" d="M110.789 16.1272C110.789 17.3226 110.608 18.4006 110.266 19.3612C109.914 20.3217 109.413 21.1436 108.761 21.8267C108.11 22.5097 107.31 23.0327 106.381 23.3956C105.453 23.7585 104.396 23.9399 103.222 23.9399C102.08 23.9399 101.002 23.8546 99.9668 23.6838C98.9315 23.513 98.0776 23.3209 97.3945 23.1181V16.1592L100.842 16.0631V20.706C101.087 20.7593 101.408 20.8127 101.792 20.8661C102.187 20.9194 102.656 20.9408 103.201 20.9408C104.471 20.9408 105.463 20.5032 106.189 19.6493C106.904 18.7848 107.267 17.6001 107.267 16.0738C107.267 16.0098 107.267 15.9457 107.267 15.8817L110.789 15.7856C110.789 15.8924 110.789 16.0098 110.789 16.1272Z" fill="url(#paint15_linear_1_475)"/>
<path id="Vector_28" d="M127.27 21.3463C127.259 21.3463 125.445 22.6911 124.505 23.0326C124.313 23.1287 124.057 23.2247 123.726 23.3315C123.395 23.4382 123.011 23.5343 122.584 23.6196C122.157 23.705 121.698 23.7797 121.207 23.8331C120.716 23.8865 120.204 23.9185 119.702 23.9185C118.39 23.9185 117.258 23.7264 116.287 23.3315C115.316 22.9366 114.526 22.4029 113.896 21.7091C113.266 21.0154 112.808 20.2042 112.498 19.265C112.188 18.3257 112.039 17.3011 112.039 16.1804C112.039 16.031 112.039 15.8923 112.05 15.7428L125.466 15.3906C125.466 15.5614 125.477 15.7322 125.477 15.9029C125.477 16.0951 125.477 16.3085 125.466 16.5433C125.455 16.7781 125.445 16.9916 125.423 17.1837H115.604C115.7 18.3791 116.116 19.3077 116.874 19.9587C117.621 20.6205 118.71 20.9407 120.129 20.9407C120.962 20.9407 121.73 20.866 122.424 20.7165C123.118 20.5671 123.662 20.407 124.057 20.2362C124.057 20.2362 125.402 19.7346 126.234 19.0195C126.266 18.9448 126.33 20.0655 127.27 21.3463Z" fill="url(#paint16_linear_1_475)"/>
<path id="Vector_29" d="M140.001 15.8923C140.001 16.0844 139.99 16.2979 139.99 16.5327C139.98 16.7675 139.969 16.981 139.948 17.1731H130.128C130.224 18.3685 130.641 19.297 131.398 19.9481C132.146 20.6098 133.234 20.93 134.654 20.93C135.486 20.93 136.255 20.8553 136.949 20.7059C137.642 20.5565 138.187 20.3964 138.582 20.2256L139.04 23.0433C138.848 23.1394 138.592 23.2354 138.261 23.3422C137.93 23.4489 137.546 23.545 137.119 23.6303C136.692 23.7157 136.233 23.7904 135.742 23.8438C135.252 23.8972 134.75 23.9292 134.238 23.9292C132.935 23.9292 131.793 23.7371 130.822 23.3422C129.851 22.9473 129.061 22.4136 128.431 21.7198C127.802 21.0261 127.343 20.2149 127.033 19.2757C126.734 18.3364 126.574 17.3118 126.574 16.1911C126.574 15.9136 126.585 15.6361 126.606 15.3693L139.99 15.0171C140.001 15.2946 140.001 15.5934 140.001 15.8923Z" fill="url(#paint17_linear_1_475)"/>
</g>
</g>
</g>
<g id="Group_11">
<path id="Vector_30" d="M71.3425 8.33556C71.1504 8.63441 70.9263 8.90124 70.6381 9.1147C70.5634 9.17874 70.5207 9.24278 70.5207 9.32817C70.5207 9.33884 70.5207 9.36019 70.5207 9.37086C70.5207 9.75509 70.5207 10.1393 70.5207 10.5236C70.4033 10.673 70.2432 10.7904 70.0511 10.8971C69.7202 11.0786 69.2826 11.1853 68.813 11.1853C68.3434 11.1853 67.9164 11.0786 67.5749 10.8971C67.3828 10.7904 67.2227 10.6623 67.1053 10.5129C67.1053 10.118 67.1053 9.73375 67.1053 9.33884C67.1053 9.32817 67.1053 9.32817 67.1053 9.31749C67.1053 9.22143 67.0733 9.14672 66.9879 9.08268C66.2407 8.47431 65.8672 7.69517 65.8672 6.73459C65.8672 6.57449 65.8672 6.41439 65.8672 6.26497C65.8672 5.94477 66.102 5.72063 66.4008 5.70996C66.7104 5.70996 66.9345 5.9341 66.9452 6.26497C66.9559 6.5318 66.9452 6.79862 66.9665 7.06545C67.0519 7.79123 67.6496 8.44229 68.3754 8.61306C68.4608 8.63441 68.5568 8.64508 68.6422 8.65576C68.7596 8.66643 68.8877 8.66643 69.0051 8.65576C69.7736 8.59172 70.4353 8.05806 70.6381 7.26824C70.7128 6.98007 70.6915 6.67055 70.7128 6.3717C70.7235 6.28631 70.7128 6.19025 70.7342 6.10487C70.8089 5.84871 71.033 5.69929 71.2892 5.72063C71.5453 5.74198 71.7588 5.9341 71.7801 6.19025C71.8335 6.94805 71.7588 7.67382 71.3425 8.33556Z" fill="url(#paint18_linear_1_475)"/>
<path id="Vector_31" d="M68.8231 5.9021C68.3108 5.9021 67.8945 6.30768 67.8945 6.81999C67.8945 7.32163 68.3108 7.73789 68.8018 7.73789C69.3034 7.73789 69.7196 7.3323 69.7196 6.83067C69.7303 6.30768 69.3354 5.9021 68.8231 5.9021Z" fill="url(#paint19_linear_1_475)"/>
<path id="Vector_32" d="M66.2071 5.00564C66.3245 5.12305 66.4633 5.12305 66.57 5.01632C66.6661 4.92026 66.6661 4.77083 66.5593 4.65343C66.2391 4.33323 65.9189 4.01304 65.5987 3.69284C65.556 3.65015 65.4813 3.61813 65.396 3.57544C65.3212 3.63948 65.2358 3.68217 65.1932 3.75688C65.1398 3.85294 65.1611 3.95967 65.2465 4.04506C65.5667 4.36525 65.8869 4.68545 66.2071 5.00564Z" fill="url(#paint20_linear_1_475)"/>
<path id="Vector_33" d="M72.5169 3.74614C72.4742 3.67143 72.3888 3.62874 72.3141 3.5647C72.2287 3.61806 72.154 3.65008 72.1006 3.69278C71.7805 4.0023 71.4709 4.31182 71.1614 4.63201C71.0333 4.76009 71.0333 4.90952 71.1401 5.01625C71.2468 5.12298 71.3855 5.11231 71.5136 4.9949C71.6417 4.86682 71.7698 4.73875 71.8979 4.61067C72.09 4.41855 72.2714 4.23711 72.4635 4.04499C72.5489 3.94893 72.5703 3.8422 72.5169 3.74614Z" fill="url(#paint21_linear_1_475)"/>
</g>
<path id="Vector_34" d="M69.0035 8.66643C68.8861 8.67711 68.758 8.67711 68.6406 8.66643C68.694 8.66643 68.758 8.65576 68.8114 8.65576C68.8754 8.65576 68.9395 8.66643 69.0035 8.66643Z" fill="#20EDED"/>
<g id="Group_12">
<path id="Vector_35" d="M67.542 4.39731C67.5633 4.40798 67.5847 4.39731 67.606 4.39731C67.8728 4.35461 68.129 4.30125 68.3958 4.2799C68.8654 4.23721 69.3351 4.25856 69.794 4.35461C69.8154 4.35461 69.8367 4.36529 69.8474 4.36529H69.858L70.1569 4.41865L70.5625 4.19452L70.6799 4.13048C70.6692 4.1198 70.6585 4.10913 70.6372 4.09846C70.0502 3.85297 69.4631 3.60749 68.8761 3.36201C68.8441 3.35134 68.7907 3.35134 68.7587 3.36201C68.1824 3.60749 67.606 3.85297 67.0297 4.08778C66.9976 4.09846 66.9763 4.1198 66.9336 4.13048C67.1471 4.22654 67.3498 4.31192 67.542 4.39731Z" fill="url(#paint22_linear_1_475)"/>
<path id="Vector_36" d="M70.0272 4.71749C70.0272 4.64277 70.0272 4.57873 70.0272 4.52537C70.0272 4.5147 69.9952 4.49335 69.9739 4.48268C69.7817 4.45066 69.5896 4.40796 69.3975 4.38662C68.8105 4.3119 68.2341 4.3546 67.6578 4.48268C67.6044 4.49335 67.5938 4.51469 67.5938 4.56806V4.57873V5.89153C67.9139 5.60336 68.3409 5.42191 68.7998 5.42191C69.2694 5.42191 69.707 5.60336 70.0166 5.90221L70.0272 4.71749Z" fill="url(#paint23_linear_1_475)"/>
</g>
</g>
</g>
</g>
<defs>
<linearGradient id="paint0_linear_1_475" x1="39.3766" y1="29.5132" x2="19.1188" y2="-1.71765" gradientUnits="userSpaceOnUse">
<stop stop-color="#0024FC"/>
<stop offset="1" stop-color="#00FFAD"/>
</linearGradient>
<linearGradient id="paint1_linear_1_475" x1="-6.08164" y1="-10.5819" x2="12.8692" y2="9.12462" gradientUnits="userSpaceOnUse">
<stop stop-color="#0024FC"/>
<stop offset="1" stop-color="#00FFAD"/>
</linearGradient>
<linearGradient id="paint2_linear_1_475" x1="31.9471" y1="33.7824" x2="27.6097" y2="-2.73066" gradientUnits="userSpaceOnUse">
<stop stop-color="#0024FC"/>
<stop offset="1" stop-color="#00FFAD"/>
</linearGradient>
<linearGradient id="paint3_linear_1_475" x1="25.3147" y1="18.3765" x2="21.9934" y2="44.4831" gradientUnits="userSpaceOnUse">
<stop stop-color="#0024FC"/>
<stop offset="1" stop-color="#00FFAD"/>
</linearGradient>
<linearGradient id="paint4_linear_1_475" x1="60.3534" y1="9.60097" x2="15.7096" y2="-4.37919" gradientUnits="userSpaceOnUse">
<stop stop-color="#0024FC"/>
<stop offset="1" stop-color="#00FFAD"/>
</linearGradient>
<linearGradient id="paint5_linear_1_475" x1="51.2109" y1="13.8166" x2="173.495" y2="41.6258" gradientUnits="userSpaceOnUse">
<stop stop-color="#0024FC"/>
<stop offset="1" stop-color="#00FFAD"/>
</linearGradient>
<linearGradient id="paint6_linear_1_475" x1="51.3096" y1="13.3852" x2="173.594" y2="41.1943" gradientUnits="userSpaceOnUse">
<stop stop-color="#0024FC"/>
<stop offset="1" stop-color="#00FFAD"/>
</linearGradient>
<linearGradient id="paint7_linear_1_475" x1="52.2812" y1="9.1185" x2="174.563" y2="36.927" gradientUnits="userSpaceOnUse">
<stop stop-color="#0024FC"/>
<stop offset="1" stop-color="#00FFAD"/>
</linearGradient>
<linearGradient id="paint8_linear_1_475" x1="53.8962" y1="2.01857" x2="176.179" y2="29.8275" gradientUnits="userSpaceOnUse">
<stop stop-color="#0024FC"/>
<stop offset="1" stop-color="#00FFAD"/>
</linearGradient>
<linearGradient id="paint9_linear_1_475" x1="54.7701" y1="-1.84458" x2="177.057" y2="25.9652" gradientUnits="userSpaceOnUse">
<stop stop-color="#0024FC"/>
<stop offset="1" stop-color="#00FFAD"/>
</linearGradient>
<linearGradient id="paint10_linear_1_475" x1="54.0601" y1="1.29896" x2="176.343" y2="29.1078" gradientUnits="userSpaceOnUse">
<stop stop-color="#0024FC"/>
<stop offset="1" stop-color="#00FFAD"/>
</linearGradient>
<linearGradient id="paint11_linear_1_475" x1="50.2338" y1="18.1101" x2="172.518" y2="45.9192" gradientUnits="userSpaceOnUse">
<stop stop-color="#0024FC"/>
<stop offset="1" stop-color="#00FFAD"/>
</linearGradient>
<linearGradient id="paint12_linear_1_475" x1="50.6991" y1="16.0699" x2="172.983" y2="43.879" gradientUnits="userSpaceOnUse">
<stop stop-color="#0024FC"/>
<stop offset="1" stop-color="#00FFAD"/>
</linearGradient>
<linearGradient id="paint13_linear_1_475" x1="51.1572" y1="14.0576" x2="173.441" y2="41.8668" gradientUnits="userSpaceOnUse">
<stop stop-color="#0024FC"/>
<stop offset="1" stop-color="#00FFAD"/>
</linearGradient>
<linearGradient id="paint14_linear_1_475" x1="51.8826" y1="10.8487" x2="174.168" y2="38.6581" gradientUnits="userSpaceOnUse">
<stop stop-color="#0024FC"/>
<stop offset="1" stop-color="#00FFAD"/>
</linearGradient>
<linearGradient id="paint15_linear_1_475" x1="52.5913" y1="7.74659" x2="174.875" y2="35.5557" gradientUnits="userSpaceOnUse">
<stop stop-color="#0024FC"/>
<stop offset="1" stop-color="#00FFAD"/>
</linearGradient>
<linearGradient id="paint16_linear_1_475" x1="53.428" y1="4.07146" x2="175.712" y2="31.8806" gradientUnits="userSpaceOnUse">
<stop stop-color="#0024FC"/>
<stop offset="1" stop-color="#00FFAD"/>
</linearGradient>
<linearGradient id="paint17_linear_1_475" x1="54.1823" y1="0.747196" x2="176.466" y2="28.5563" gradientUnits="userSpaceOnUse">
<stop stop-color="#0024FC"/>
<stop offset="1" stop-color="#00FFAD"/>
</linearGradient>
<linearGradient id="paint18_linear_1_475" x1="67.8907" y1="-1.05965" x2="70.9642" y2="23.9799" gradientUnits="userSpaceOnUse">
<stop stop-color="#0024FC"/>
<stop offset="1" stop-color="#00FFAD"/>
</linearGradient>
<linearGradient id="paint19_linear_1_475" x1="67.8481" y1="-1.05446" x2="70.9215" y2="23.9851" gradientUnits="userSpaceOnUse">
<stop stop-color="#0024FC"/>
<stop offset="1" stop-color="#00FFAD"/>
</linearGradient>
<linearGradient id="paint20_linear_1_475" x1="65.2794" y1="-0.739212" x2="68.3528" y2="24.3004" gradientUnits="userSpaceOnUse">
<stop stop-color="#0024FC"/>
<stop offset="1" stop-color="#00FFAD"/>
</linearGradient>
<linearGradient id="paint21_linear_1_475" x1="71.0884" y1="-1.45206" x2="74.1619" y2="23.5875" gradientUnits="userSpaceOnUse">
<stop stop-color="#0024FC"/>
<stop offset="1" stop-color="#00FFAD"/>
</linearGradient>
<linearGradient id="paint22_linear_1_475" x1="68.3611" y1="1.87585" x2="69.8327" y2="9.23354" gradientUnits="userSpaceOnUse">
<stop stop-color="#0024FC"/>
<stop offset="1" stop-color="#00FFAD"/>
</linearGradient>
<linearGradient id="paint23_linear_1_475" x1="68.1593" y1="1.91589" x2="69.6308" y2="9.27357" gradientUnits="userSpaceOnUse">
<stop stop-color="#0024FC"/>
<stop offset="1" stop-color="#00FFAD"/>
</linearGradient>
<clipPath id="clip0_1_475">
<rect width="140" height="38.0285" fill="white"/>
</clipPath>
</defs>
</svg>
