<svg width="52" height="52" viewBox="0 0 52 52" fill="none" xmlns="http://www.w3.org/2000/svg">
<rect y="6.10352e-05" width="52" height="52" rx="16" fill="#393C4A"/>
<path opacity="0.4" d="M28.4183 19.49C27.9422 19.4021 27.505 19.7059 27.4144 20.1705C27.3238 20.6352 27.6285 21.0889 28.0916 21.1798C29.4859 21.4517 30.5624 22.5309 30.8353 23.93V23.931C30.913 24.3337 31.2675 24.6265 31.6759 24.6265C31.7306 24.6265 31.7854 24.6215 31.8412 24.6115C32.3043 24.5186 32.609 24.0659 32.5184 23.6002C32.1111 21.5106 30.5027 19.8967 28.4183 19.49Z" fill="white"/>
<path opacity="0.4" d="M28.3558 16.008C28.1328 15.976 27.9087 16.042 27.7304 16.1839C27.5472 16.3278 27.4326 16.5356 27.4078 16.7685C27.355 17.2391 27.6946 17.6649 28.1646 17.7178C31.4063 18.0796 33.9259 20.6048 34.2904 23.8566C34.3392 24.2923 34.7047 24.6211 35.1409 24.6211C35.1738 24.6211 35.2057 24.6191 35.2385 24.6151C35.4666 24.5901 35.6698 24.4772 35.8132 24.2973C35.9556 24.1174 36.0203 23.8936 35.9944 23.6647C35.5403 19.6075 32.4002 16.4587 28.3558 16.008Z" fill="white"/>
<path fill-rule="evenodd" clip-rule="evenodd" d="M25.0317 26.9724C29.0208 30.9604 29.9258 26.3468 32.4656 28.8849C34.9143 31.3328 36.3216 31.8233 33.2192 34.9248C32.8306 35.2371 30.3616 38.9943 21.6846 30.3197C13.0065 21.6441 16.7616 19.1725 17.074 18.784C20.1839 15.6739 20.6659 17.0894 23.1145 19.5374C25.6544 22.0766 21.0427 22.9845 25.0317 26.9724Z" fill="white"/>
</svg>
