<svg width="55" height="56" viewBox="0 0 55 56" fill="none" xmlns="http://www.w3.org/2000/svg">
<g id="Frame" clip-path="url(#clip0_1_4976)">
<g id="Group">
<path id="Vector" d="M3.0639 22.1535C1.78179 23.6509 1.26026 22.682 0.651807 21.8232C-0.260876 20.5019 -0.282607 20.5239 0.999495 19.555C9.5396 13.1688 18.1014 6.78266 26.6415 0.352461C27.2065 -0.0659424 27.5542 -0.176049 28.1844 0.286397C36.9201 6.84872 45.6992 13.345 54.4784 19.8633C55.0216 20.2817 55.1955 20.59 54.6522 21.0965C54.5001 21.2506 54.3914 21.4488 54.2611 21.625C53.2832 22.9462 53.2832 22.9462 51.9142 22.4398C51.7186 22.8141 51.8272 23.2105 51.8272 23.6069C51.8272 34.0229 51.8055 44.461 51.849 54.877C51.849 55.8019 51.5882 56.0001 50.719 56.0001C35.2034 55.9781 19.6878 55.9781 4.17215 56.0001C3.25947 56.0001 3.04217 55.7799 3.0639 54.855C3.10736 44.461 3.08563 34.089 3.08563 23.695C3.0639 23.3206 3.0639 22.9022 3.0639 22.1535ZM22.3389 36.2251C23.0777 32.1511 21.0133 29.6407 16.9932 29.6407C15.8415 29.6407 14.6897 29.6187 13.538 29.6627C12.9948 29.6847 12.7774 29.5306 12.7992 28.936C12.8426 27.7689 12.8209 26.6018 12.8209 25.4346C12.8209 23.0564 12.8209 23.0784 10.474 23.0564C9.77863 23.0564 9.58306 23.2105 9.58306 23.9592C9.60479 32.1511 9.60479 40.343 9.58306 48.5349C9.58306 49.2396 9.7569 49.4598 10.474 49.4378C12.7992 49.4158 12.8426 49.4598 12.7992 47.0815C12.7992 46.3108 12.9948 46.1126 13.7553 46.1126C22.8821 46.1346 32.009 46.1346 41.1358 46.1126C41.8746 46.1126 42.1137 46.2888 42.0919 47.0595C42.0702 49.4378 42.0919 49.4158 44.4171 49.4378C45.1125 49.4378 45.3298 49.2836 45.3081 48.5349C45.2646 44.7693 45.2646 41.0037 45.3081 37.238C45.3081 36.4232 45.1125 36.2251 44.3085 36.2251C37.9849 36.2691 31.683 36.2471 25.3594 36.2471C24.3598 36.2251 23.3602 36.2251 22.3389 36.2251ZM27.4673 13.1908C25.0117 13.1908 22.5562 13.2129 20.1006 13.1688C19.4922 13.1688 19.3183 13.323 19.3183 13.9396C19.3401 17.8153 19.3401 21.691 19.3183 25.5668C19.3183 26.2054 19.5139 26.3595 20.1006 26.3375C24.9683 26.3155 29.8359 26.3155 34.7253 26.3375C35.3772 26.3375 35.5728 26.1834 35.5728 25.5007C35.5293 21.669 35.5293 17.8153 35.5728 13.9836C35.5728 13.3009 35.3772 13.1248 34.7253 13.1468C32.2915 13.2129 29.8794 13.1908 27.4673 13.1908Z" fill="#076046"/>
<path id="Vector_2" d="M48.5669 11.5613C45.3073 9.0949 42.2868 6.76065 39.2228 4.44842C38.8968 4.20619 38.6795 3.94194 38.8099 3.54555C38.9403 3.08311 39.3532 3.32534 39.6357 3.30332C42.3303 3.2813 45.0248 3.2813 47.7412 3.2813C48.1758 3.2813 48.5886 3.17119 48.5886 3.89789C48.5452 6.38629 48.5669 8.85267 48.5669 11.5613Z" fill="url(#paint0_linear_1_4976)"/>
<path id="Vector_3" d="M27.4465 42.8093C22.8613 42.8093 18.2979 42.7873 13.7128 42.8313C13.0391 42.8313 12.7783 42.6992 12.8001 41.9505C12.8218 39.5281 12.7783 39.5281 15.2122 39.5281C23.7957 39.5281 32.3793 39.5501 40.9629 39.5061C41.8321 39.5061 42.1363 39.6603 42.1146 40.6072C42.0494 42.8093 42.0928 42.8093 39.8981 42.8093C35.7475 42.8093 31.597 42.8093 27.4465 42.8093Z" fill="url(#paint1_linear_1_4976)"/>
<path id="Vector_4" d="M15.5592 36.225C15.4506 36.225 15.3419 36.225 15.2333 36.225C12.7343 36.225 12.756 36.225 12.7995 33.7146C12.7995 33.12 12.9516 32.8778 13.5818 32.8998C14.9073 32.9438 16.2546 32.8998 17.5802 32.9218C18.645 32.9439 19.3404 33.6485 19.3186 34.5954C19.2969 35.5203 18.6232 36.181 17.6236 36.203C16.9283 36.247 16.2546 36.225 15.5592 36.225Z" fill="url(#paint2_linear_1_4976)"/>
<path id="Vector_5" d="M27.5332 16.472C28.8587 16.472 30.206 16.494 31.5316 16.45C32.1183 16.428 32.3574 16.5821 32.3356 17.2207C32.2922 18.9384 32.3139 20.656 32.3356 22.3737C32.3356 22.9022 32.1835 23.0564 31.662 23.0564C28.8587 23.0343 26.0338 23.0343 23.2305 23.0564C22.7307 23.0564 22.5352 22.9463 22.5352 22.3957C22.5569 20.634 22.5569 18.8944 22.5352 17.1327C22.5352 16.6041 22.6873 16.428 23.2088 16.45C24.6648 16.494 26.099 16.472 27.5332 16.472Z" fill="url(#paint3_linear_1_4976)"/>
</g>
</g>
<defs>
<linearGradient id="paint0_linear_1_4976" x1="43.6801" y1="2.42908" x2="43.6801" y2="12.3915" gradientUnits="userSpaceOnUse">
<stop stop-color="#1D95D2"/>
<stop offset="1" stop-color="#47B43A"/>
</linearGradient>
<linearGradient id="paint1_linear_1_4976" x1="27.4572" y1="39.1736" x2="27.4572" y2="43.1638" gradientUnits="userSpaceOnUse">
<stop stop-color="#1D95D2"/>
<stop offset="1" stop-color="#47B43A"/>
</linearGradient>
<linearGradient id="paint2_linear_1_4976" x1="16.0541" y1="32.5652" x2="16.0541" y2="36.5637" gradientUnits="userSpaceOnUse">
<stop stop-color="#1D95D2"/>
<stop offset="1" stop-color="#47B43A"/>
</linearGradient>
<linearGradient id="paint3_linear_1_4976" x1="27.4361" y1="15.7872" x2="27.4361" y2="23.7172" gradientUnits="userSpaceOnUse">
<stop stop-color="#1D95D2"/>
<stop offset="1" stop-color="#47B43A"/>
</linearGradient>
<clipPath id="clip0_1_4976">
<rect width="55" height="56" fill="white"/>
</clipPath>
</defs>
</svg>
