<svg width="54" height="56" viewBox="0 0 54 56" fill="none" xmlns="http://www.w3.org/2000/svg">
<g id="Frame" clip-path="url(#clip0_1_4962)">
<g id="Group">
<path id="Vector" d="M37.3678 47.7496C37.3678 45.3422 37.3914 42.9349 37.3442 40.5275C37.3206 39.5693 37.7217 39.1252 38.6181 38.9149C40.6706 38.4474 42.6994 37.9332 44.7518 37.4658C45.3652 37.3255 45.6483 37.0918 45.6247 36.3907C45.5539 34.7312 45.5539 33.0484 45.6247 31.389C45.6483 30.6644 45.4596 30.4775 44.7282 30.4775C40.529 30.5242 36.3534 30.4775 32.1542 30.5242C31.3049 30.5242 30.9274 30.4074 30.9746 29.4257C31.069 27.4858 30.9982 27.5326 32.9327 27.2755C36.7309 26.7613 40.529 26.2938 44.28 25.5927C45.5303 25.3589 46.6627 24.4942 47.8423 23.9099C48.4792 23.606 49.0926 23.2554 49.7059 22.9282C51.3573 22.0634 53.1974 22.788 53.7872 24.5877C53.9523 25.1018 53.9995 25.6628 53.9995 26.2003C54.0231 30.384 54.0231 34.5676 53.9995 38.7746C53.9995 41.6494 52.4897 43.1686 49.6116 43.1686C47.7007 43.192 45.7662 43.1686 43.8554 43.1686C42.1332 43.1686 42.0388 43.2621 42.0388 44.9215C42.0388 48.2638 42.0153 51.5826 42.0624 54.9249C42.0624 55.6962 41.9445 56.0468 41.0716 55.9766C40.128 55.8831 39.1843 55.9065 38.2643 55.9766C37.5329 56.0234 37.3442 55.813 37.3442 55.0885C37.3914 52.6344 37.3678 50.2037 37.3678 47.7496Z" fill="#076046"/>
<path id="Vector_2" d="M19.0841 55.9766C15.5926 55.9766 12.1247 55.9533 8.63325 56C7.85474 56 7.66602 55.7663 7.66602 55.0418C7.7132 51.162 7.7132 47.2822 7.66602 43.4024C7.66602 42.6311 7.87834 42.4441 8.63325 42.4441C15.5926 42.4675 22.5756 42.4675 29.535 42.4441C30.3135 42.4441 30.5258 42.6544 30.5022 43.4257C30.455 47.3055 30.455 51.1853 30.5022 55.0651C30.5022 55.8598 30.2427 56.0234 29.5114 56.0234C26.0435 55.9533 22.552 55.9766 19.0841 55.9766Z" fill="#076046"/>
<path id="Vector_3" d="M19.1552 21.1987C20.6886 21.1987 22.222 21.1519 23.7319 21.222C26.4448 21.3389 28.3793 23.3723 28.4029 26.0601C28.4265 27.2521 28.3557 28.4674 28.4265 29.6594C28.4737 30.4073 28.167 30.6411 27.4828 30.5242C27.3177 30.5008 27.1762 30.5242 27.011 30.5242C26.1146 30.4775 25.0058 30.8748 24.3924 30.3372C23.8262 29.823 24.2509 28.7245 24.2037 27.8831C24.1801 27.2521 24.0149 26.808 23.2836 26.808C22.5995 26.808 22.4579 27.2988 22.4343 27.8364C22.4343 27.9065 22.4343 28 22.4343 28.0701C22.34 30.5008 22.34 30.5008 19.9101 30.5008C18.7777 30.5008 17.6454 30.4775 16.513 30.5242C15.8996 30.5476 15.6637 30.384 15.7109 29.7529C15.7581 29.0985 15.7345 28.4441 15.7109 27.7663C15.6873 27.2053 15.4042 26.7846 14.7672 26.808C14.1303 26.8314 13.8944 27.2287 13.8708 27.813C13.8708 27.9766 13.8944 28.1169 13.8708 28.2805C13.7528 29.005 14.2482 30.2204 13.6113 30.4073C12.5025 30.7346 11.205 30.5008 10.0018 30.4775C9.71875 30.4775 9.71875 30.1503 9.71875 29.9165C9.74234 28.374 9.67157 26.808 9.83671 25.2654C10.0962 22.9983 11.9599 21.3623 14.2482 21.1987C14.4134 21.1753 14.5549 21.1753 14.7201 21.1753C16.1827 21.1753 17.6689 21.1753 19.1552 21.1987C19.1552 21.1753 19.1552 21.1753 19.1552 21.1987Z" fill="url(#paint0_linear_1_4962)"/>
<path id="Vector_4" d="M40.2225 12.2938C40.1046 12.2704 40.0102 12.2938 39.963 12.247C38.1465 10.424 35.8818 10.3071 33.4755 10.424C31.6118 10.5175 29.7245 10.5876 27.8372 10.3305C25.2422 9.97993 23.237 7.6427 23.3313 5.09513C23.4257 2.31382 25.6432 0.0934565 28.427 0.0233397C30.6917 -0.0234049 32.9565 -0.0234049 35.2448 0.0233397C37.887 0.0700843 40.1046 2.03336 40.2225 4.62768C40.3169 7.17526 40.2225 9.72284 40.2225 12.2938ZM31.6354 4.46407C32.8149 4.46407 33.9945 4.4407 35.1505 4.46407C35.7874 4.48745 36.2828 4.23035 36.3064 3.5993C36.33 2.89813 35.811 2.61766 35.1269 2.61766C32.7678 2.61766 30.4322 2.61766 28.0731 2.61766C27.4598 2.61766 26.9644 2.85139 26.9879 3.55255C26.9879 4.25372 27.4834 4.46407 28.0967 4.46407C29.2999 4.46407 30.4794 4.46407 31.6354 4.46407ZM29.8425 7.73619C30.4558 7.73619 31.0928 7.73619 31.7062 7.73619C32.2488 7.73619 32.6026 7.4791 32.6734 6.94154C32.7442 6.31048 32.3431 5.98327 31.7769 5.9599C30.4794 5.91316 29.2055 5.91316 27.908 5.9599C27.3418 5.98327 26.9408 6.31048 27.0115 6.94154C27.0587 7.50247 27.4362 7.73619 27.9552 7.73619C28.5921 7.73619 29.2055 7.73619 29.8425 7.73619Z" fill="url(#paint1_linear_1_4962)"/>
<path id="Vector_5" d="M19.2029 32.2536C25.1243 32.2536 31.0221 32.277 36.9434 32.2302C37.8871 32.2302 38.123 32.4873 38.0994 33.3755C38.0286 35.666 38.0758 35.666 35.7875 35.666C24.3222 35.666 12.8333 35.6426 1.36808 35.6893C0.353661 35.6893 -0.0473872 35.5257 -0.000205074 34.4038C0.0941593 32.2536 0.0233859 32.2536 2.17018 32.2536C7.85563 32.2536 13.5175 32.2536 19.2029 32.2536Z" fill="#076046"/>
<path id="Vector_6" d="M36.2116 37.5591C34.1828 38.6576 32.437 39.6158 30.6677 40.5274C30.3138 40.7143 29.8184 40.6209 29.3938 40.6209C22.5759 40.6209 15.7817 40.6209 8.96389 40.6442C8.04384 40.6442 7.21815 40.4572 6.41605 40.0132C5.02418 39.2185 3.58512 38.4706 1.91016 37.5591C13.4462 37.5591 24.652 37.5591 36.2116 37.5591Z" fill="#076046"/>
<path id="Vector_7" d="M50.7912 17.2954C50.7676 19.9832 48.55 22.1802 45.8606 22.1568C43.1948 22.1335 40.9301 19.843 40.9773 17.2253C41.0245 14.5375 43.242 12.3872 45.955 12.4106C48.668 12.4106 50.7912 14.5842 50.7912 17.2954Z" fill="#076046"/>
<path id="Vector_8" d="M19.1318 9.58247C21.8448 9.60584 23.9916 11.7795 23.968 14.514C23.9444 17.1785 21.6561 19.3988 18.9903 19.3287C16.3245 19.2586 14.0597 16.9681 14.1305 14.3504C14.1777 11.6626 16.3953 9.5591 19.1318 9.58247Z" fill="url(#paint2_linear_1_4962)"/>
</g>
</g>
<defs>
<linearGradient id="paint0_linear_1_4962" x1="19.075" y1="20.2306" x2="19.075" y2="31.5667" gradientUnits="userSpaceOnUse">
<stop stop-color="#1D95D2"/>
<stop offset="1" stop-color="#47B43A"/>
</linearGradient>
<linearGradient id="paint1_linear_1_4962" x1="31.7963" y1="-1.24227" x2="31.7963" y2="13.5243" gradientUnits="userSpaceOnUse">
<stop stop-color="#1D95D2"/>
<stop offset="1" stop-color="#47B43A"/>
</linearGradient>
<linearGradient id="paint2_linear_1_4962" x1="19.0486" y1="8.60747" x2="19.0486" y2="20.3051" gradientUnits="userSpaceOnUse">
<stop stop-color="#1D95D2"/>
<stop offset="1" stop-color="#47B43A"/>
</linearGradient>
<clipPath id="clip0_1_4962">
<rect width="54" height="56" fill="white"/>
</clipPath>
</defs>
</svg>
