<svg width="56" height="56" viewBox="0 0 56 56" fill="none" xmlns="http://www.w3.org/2000/svg">
<g id="Group">
<path id="Vector" d="M37.5597 43.251C34.7749 44.3647 32.4815 45.9426 30.7264 48.2165C29.3925 49.9567 28.4096 51.8362 27.9884 53.9941C27.8714 54.6206 27.614 54.8527 26.9119 54.8527C18.4873 54.8295 10.0627 54.8295 1.61472 54.8295C0.304222 54.8295 0 54.5278 0 53.182C0 47.5668 0 41.9516 0 36.3132C0 35.0602 0.374427 34.6889 1.68492 34.6889C12.2625 34.6889 22.8166 34.6889 33.3942 34.6889C33.7686 34.6889 34.4005 34.3873 34.2601 35.269C33.792 38.5175 35.0323 41.0699 37.5597 43.251Z" fill="#076046"/>
<path id="Vector_2" d="M29.6043 27.6816C29.6043 26.4982 29.5575 24.7812 29.6277 23.0641C29.6511 22.3216 29.4639 21.9736 28.6682 22.0896C28.5512 22.1128 28.4342 22.0896 28.3172 22.0896C24.5261 22.0896 23.7305 21.3007 23.7305 17.5649C23.7305 12.9475 23.7305 8.33 23.7305 3.71254C23.7305 1.11376 24.8772 0 27.4981 0C34.8697 0 42.2646 0 49.6361 0C52.2103 0 53.4272 1.20657 53.4272 3.71254C53.4272 8.60844 53.4272 13.4811 53.4272 18.3771C53.4272 20.8366 52.1869 22.0664 49.7063 22.0664C45.4004 22.0896 41.0711 22.0896 36.7652 22.0664C36.0866 22.0664 35.6419 22.2984 35.1505 22.7625C33.255 24.4795 31.3126 26.1734 29.6043 27.6816ZM51.0168 18.0522C50.853 16.3816 51.1338 14.8733 50.5254 13.2259C49.9169 11.5553 50.2914 9.49017 50.4318 7.6107C50.5254 6.56655 50.151 6.2417 49.2617 6.00967C45.8919 5.15114 42.5454 4.24621 39.1756 3.36449C38.5203 3.17886 37.8885 3.17886 37.2332 3.36449C33.9102 4.26942 30.5872 5.12794 27.2641 6.00967C26.6323 6.17209 25.86 6.2185 25.8834 7.10022C25.9068 7.91234 26.6323 7.95875 27.2173 8.12117C30.4936 8.9797 33.7932 9.81502 37.0694 10.7199C37.8183 10.9288 38.4735 10.952 39.2224 10.7432C42.2646 9.90783 45.3302 9.14212 48.4426 8.33C48.466 8.53883 48.5128 8.70126 48.4894 8.84048C48.2086 10.6503 48.9575 12.5066 47.9044 14.3629C47.3896 15.291 47.8108 16.7528 47.8108 18.3538C48.9341 16.9616 49.9403 17.0777 51.0168 18.0522ZM30.0489 12.6458C30.0489 13.0635 30.0723 13.5043 30.0489 13.922C30.0255 14.3861 30.1425 14.5949 30.6574 14.6645C32.6699 14.9894 34.6825 15.407 36.695 15.7551C39.0352 16.1495 41.3051 15.4766 43.5751 15.0822C46.4769 14.5717 46.4769 14.5949 46.4301 11.7177C46.4301 11.6481 46.4301 11.5553 46.4301 11.4857C46.5003 10.9288 46.2429 10.836 45.7514 10.952C44.792 11.2304 43.8325 11.4857 42.8496 11.7409C40.3925 12.3906 38.0055 13.3187 35.4079 12.2514C34.2846 11.7873 33.0443 11.6017 31.8509 11.2768C30.0489 10.8128 30.0489 10.8128 30.0489 12.6458Z" fill="url(#paint0_linear_1_4950)"/>
<path id="Vector_3" d="M42.6861 55.9896C38.9184 55.9896 35.1507 55.9896 31.3831 55.9896C29.862 55.9896 29.4641 55.4791 29.8386 53.9941C31.2895 48.3093 36.7889 44.1559 42.8031 44.2023C48.7939 44.2487 54.2231 48.4485 55.6506 54.1797C55.9548 55.4327 55.5336 55.9896 54.1997 55.9896C50.3852 56.0128 46.5474 55.9896 42.6861 55.9896Z" fill="#076046"/>
<path id="Vector_4" d="M42.6622 43.0424C38.9647 43.0192 35.9225 39.9795 35.9693 36.3598C36.0161 32.7169 39.0817 29.7004 42.7558 29.7004C46.5234 29.7236 49.4955 32.7169 49.4721 36.499C49.4486 40.1652 46.4298 43.0656 42.6622 43.0424Z" fill="#076046"/>
<path id="Vector_5" d="M6.5293 17.3792C6.5293 13.6899 9.50131 10.6967 13.1988 10.6735C16.9196 10.6503 20.0555 13.7363 20.0321 17.4024C20.0087 21.0454 16.9196 24.0618 13.2456 24.0618C9.57152 24.0618 6.5293 21.0222 6.5293 17.3792Z" fill="#076046"/>
<path id="Vector_6" d="M1.80078 32.7865C4.28136 28.958 7.6746 26.7304 12.1677 26.4056C17.5501 26.0111 21.6688 28.2619 24.7344 32.7865C17.0353 32.7865 9.49993 32.7865 1.80078 32.7865Z" fill="#076046"/>
<path id="Vector_7" d="M55.9759 50.0264C53.9165 46.7315 51.3424 44.5968 47.8789 43.251C49.6574 41.766 50.7807 40.049 51.2019 37.8911C51.3658 37.0557 51.3658 36.1972 51.2721 35.3619C51.2253 34.8746 51.2721 34.6658 51.8338 34.689C52.7699 34.7354 53.7059 34.689 54.642 34.7122C55.5313 34.7354 55.9993 35.1763 55.9993 36.0812C55.9759 40.6058 55.9759 45.1537 55.9759 50.0264Z" fill="#076046"/>
</g>
<defs>
<linearGradient id="paint0_linear_1_4950" x1="38.5788" y1="-2.76816" x2="38.5788" y2="30.4498" gradientUnits="userSpaceOnUse">
<stop stop-color="#1D95D2"/>
<stop offset="1" stop-color="#47B43A"/>
</linearGradient>
</defs>
</svg>
