<svg width="56" height="41" viewBox="0 0 56 41" fill="none" xmlns="http://www.w3.org/2000/svg">
<g id="Frame" clip-path="url(#clip0_1_5020)">
<g id="Group">
<path id="Vector" d="M28.011 26.0551C19.7415 26.0551 11.472 26.0551 3.20251 26.0551C0.679984 26.0551 0.021935 25.3976 0 22.9214C0 16.2159 0 9.53234 0 2.84874C0 0.810796 0.811594 0 2.85155 0C19.6099 0 36.3682 0 53.1265 0C55.1665 0 55.9781 0.810796 56 2.82683C56 9.61999 56 16.4131 56 23.2282C56 25.2662 55.2103 26.0551 53.1485 26.0551C44.7693 26.0551 36.3901 26.0551 28.011 26.0551ZM14.0603 14.5943C14.2139 14.6162 14.3674 14.6162 14.521 14.6382C14.8061 15.3832 15.0474 16.1283 15.3984 16.8514C15.8151 17.706 16.5828 17.9252 17.4164 17.6622C18.2499 17.3773 18.6009 16.698 18.4034 15.8434C18.2718 15.2079 18.0744 14.5724 17.7893 14.0027C17.0435 12.6002 16.9996 11.3731 18.5131 10.4308C18.6009 10.365 18.6667 10.2774 18.7325 10.1897C19.215 9.42277 19.237 8.6558 18.5789 8.02031C17.9209 7.40673 17.1312 7.38482 16.4074 7.97648C16.0125 8.28327 15.6396 8.6558 15.3326 9.05024C14.9377 9.53234 14.5429 9.55425 13.9945 9.33511C13.0513 8.96259 12.0862 8.61197 11.121 8.30518C10.0901 7.97648 9.25656 8.34901 8.92754 9.29129C8.62045 10.1678 9.01528 10.9567 10.0023 11.3731C10.6604 11.6579 11.3404 11.8771 12.0423 12.14C11.6255 13.2576 10.7043 12.8632 9.95848 12.907C8.97141 12.9947 8.33529 13.5206 8.29142 14.419C8.24755 15.427 8.79593 15.953 9.7172 16.1721C9.95848 16.2159 10.1998 16.2159 10.3094 16.2378C10.5288 16.8295 10.5507 17.465 10.8797 17.706C11.3404 18.0567 12.0423 18.2977 12.5907 18.232C13.4023 18.1224 13.6874 17.3993 13.7532 16.6104C13.841 15.9091 13.9726 15.2517 14.0603 14.5943ZM37.2895 17.2459C40.4262 17.2459 43.5409 17.2459 46.6776 17.2459C48.0595 17.2459 48.7834 16.6761 48.8053 15.6243C48.8053 14.5286 48.1253 13.9808 46.7215 13.9808C40.47 13.9808 34.1966 13.9808 27.9452 13.9808C26.5633 13.9808 25.8175 14.5505 25.8175 15.6024C25.8175 16.6761 26.5413 17.2678 27.9232 17.2678C31.038 17.2459 34.1747 17.2459 37.2895 17.2459ZM42.4003 11.3731C43.9358 11.3731 45.4493 11.395 46.9847 11.3731C48.1692 11.3511 48.7834 10.8252 48.8273 9.81721C48.8492 8.83111 48.2131 8.12988 47.1163 8.10796C43.9796 8.06414 40.8649 8.06414 37.7282 8.10796C36.6534 8.12988 35.9953 8.87493 36.0611 9.86104C36.105 10.8033 36.7192 11.3511 37.8378 11.3511C39.3294 11.395 40.8649 11.3731 42.4003 11.3731Z" fill="url(#paint0_linear_1_5020)"/>
<path id="Vector_2" d="M11.2529 29.2544C24.2822 29.2544 37.3335 29.2544 50.4726 29.2544C49.6391 32.3004 48.8275 35.2587 48.0159 38.2389C47.9501 38.5238 47.8623 38.8086 47.7746 39.0716C47.2482 40.8904 46.283 41.3725 44.4843 40.7589C37.6187 38.4142 30.7311 36.0695 23.8655 33.7466C19.654 32.3004 15.4205 30.876 11.209 29.4297C11.2529 29.364 11.2529 29.2982 11.2529 29.2544Z" fill="#076046"/>
</g>
</g>
<defs>
<linearGradient id="paint0_linear_1_5020" x1="28" y1="-2.60551" x2="28" y2="28.6606" gradientUnits="userSpaceOnUse">
<stop stop-color="#1D95D2"/>
<stop offset="1" stop-color="#47B43A"/>
</linearGradient>
<clipPath id="clip0_1_5020">
<rect width="56" height="41" fill="white"/>
</clipPath>
</defs>
</svg>
