<svg width="61" height="56" viewBox="0 0 61 56" fill="none" xmlns="http://www.w3.org/2000/svg">
<g id="Frame" clip-path="url(#clip0_1_4987)">
<g id="Group">
<path id="Vector" d="M32.1719 28.6696C34.0826 28.4544 34.0826 28.4544 34.5125 30.0325C35.4918 33.7148 37.6413 36.5602 40.7224 38.7601C41.0568 38.9992 41.4628 39.4535 41.4628 39.8122C41.5106 44.0923 41.4867 48.3724 41.4867 52.8199C41.009 52.8199 40.5791 52.8199 40.1731 52.8199C27.6339 52.8199 15.0948 52.8199 2.5556 52.8199C0.501566 52.8438 0 52.3416 0 50.3331C0 43.2315 0 36.1298 0 29.0043C0 28.6217 0 28.2392 0 27.6653C2.31676 28.9087 4.68128 28.55 6.99804 28.5739C11.3211 28.5978 15.6441 28.5739 19.9671 28.5739C20.397 28.5739 20.8269 28.5739 21.4479 28.5739C21.4479 30.2238 21.4479 31.8019 21.4479 33.3561C21.4479 35.1256 22.0211 35.7234 23.7886 35.7473C25.8426 35.7712 27.9205 35.7712 29.9746 35.7473C31.5748 35.7234 32.1719 35.1017 32.1719 33.4757C32.1719 31.8976 32.1719 30.3194 32.1719 28.6696Z" fill="#076046"/>
<path id="Vector_2" d="M33.9632 24.9155C33.6288 24.9394 33.3422 24.9872 33.0795 24.9872C23.3587 24.9872 13.6378 24.9872 3.91699 24.9872C3.41543 24.9872 2.86609 24.9394 2.38841 24.772C0.93148 24.2938 0.0238841 22.9787 0 21.4244C0 17.4552 0 13.4859 0 9.51665C0 7.74722 0.573218 7.14945 2.34064 7.14945C6.97416 7.12553 11.6316 7.14945 16.2651 7.14945C16.7428 7.14945 17.2204 7.14945 17.8414 7.14945C17.8414 5.49957 17.8414 3.92143 17.8414 2.3433C17.8414 0.59778 18.4385 0 20.2059 0C24.5767 0 28.9475 0 33.2944 0C35.1335 0 35.6828 0.573869 35.6828 2.41503C35.6828 3.92143 35.6828 5.42784 35.6828 7.07771C36.2083 7.10162 36.6621 7.14945 37.1159 7.14945C41.63 7.14945 46.168 7.14945 50.6821 7.14945C53.166 7.14945 53.5482 7.53202 53.5482 10.0666C53.5482 10.4492 53.5482 10.8557 53.5482 11.2622C43.0392 8.72758 34.7514 15.9727 33.9632 24.9155ZM32.1002 7.14945C32.1002 5.88215 32.1002 4.80615 32.1002 3.65841C28.5415 3.65841 25.0305 3.65841 21.4957 3.65841C21.4957 4.83006 21.4957 5.92997 21.4957 7.0538C21.7823 7.07771 22.0211 7.12553 22.2361 7.12553C25.5082 7.14944 28.7565 7.14945 32.1002 7.14945Z" fill="url(#paint0_linear_1_4987)"/>
<path id="Vector_3" d="M53.4048 41.0554C50.5626 41.0554 47.8875 41.0554 45.0692 41.0554C45.0692 40.0272 45.0214 39.023 45.0931 38.0665C45.1647 37.2535 44.8542 36.8949 44.1377 36.5601C39.5042 34.3125 37.0441 29.602 37.6651 24.2698C38.1906 19.7266 41.9404 15.7096 46.6694 14.6096C52.3777 13.2706 58.2293 16.4269 60.2834 21.9265C62.3135 27.426 59.9968 33.7147 54.7662 36.3449C53.6436 36.9188 53.2853 37.5405 53.4048 38.6882C53.4525 39.4534 53.4048 40.2185 53.4048 41.0554ZM41.1283 25.8718C41.0328 30.3671 44.5676 34.0973 49.0101 34.1929C53.5481 34.2885 57.3456 30.7258 57.4173 26.2544C57.5128 21.6874 54.0257 18.0289 49.4639 17.8855C44.9259 17.7898 41.2239 21.3048 41.1283 25.8718Z" fill="#076046"/>
<path id="Vector_4" d="M45.045 44.7378C47.8872 44.7378 50.5384 44.7378 53.3806 44.7378C53.3806 46.0051 53.3806 47.2485 53.3806 48.4918C53.3806 49.5679 53.4045 50.6439 53.3806 51.7199C53.3328 54.1349 51.7804 55.8565 49.4875 56C47.2424 56.1434 45.3794 54.5414 45.0689 52.222C45.0211 51.8633 45.045 51.5047 45.045 51.146C45.045 49.0418 45.045 46.9615 45.045 44.7378Z" fill="#076046"/>
<path id="Vector_5" d="M25.1016 28.6694C26.2241 28.6694 27.3228 28.6694 28.4931 28.6694C28.4931 29.8172 28.4931 30.941 28.4931 32.1126C27.3706 32.1126 26.2719 32.1126 25.1016 32.1126C25.1016 30.9888 25.1016 29.865 25.1016 28.6694Z" fill="url(#paint1_linear_1_4987)"/>
</g>
</g>
<defs>
<linearGradient id="paint0_linear_1_4987" x1="26.7741" y1="-2.49872" x2="26.7741" y2="27.4859" gradientUnits="userSpaceOnUse">
<stop stop-color="#1D95D2"/>
<stop offset="1" stop-color="#47B43A"/>
</linearGradient>
<linearGradient id="paint1_linear_1_4987" x1="26.7973" y1="28.3251" x2="26.7973" y2="32.457" gradientUnits="userSpaceOnUse">
<stop stop-color="#1D95D2"/>
<stop offset="1" stop-color="#47B43A"/>
</linearGradient>
<clipPath id="clip0_1_4987">
<rect width="61" height="56" fill="white"/>
</clipPath>
</defs>
</svg>
