<svg width="44" height="56" viewBox="0 0 44 56" fill="none" xmlns="http://www.w3.org/2000/svg">
<g id="Frame" clip-path="url(#clip0_1_4998)">
<g id="Group">
<path id="Vector" d="M40.1082 44.5752C39.5233 43.5528 39.0909 42.5816 38.4805 41.7381C37.2851 40.1023 35.7337 39.8979 34.0551 41.0225C32.3256 42.1982 30.5961 43.3995 28.8412 44.5752C27.5441 45.4442 27.2898 46.7988 27.3661 48.1535C27.4678 50.3004 27.7221 52.4474 27.951 54.9522C25.5094 55.2844 23.0424 55.6423 20.499 56.0001C20.3973 53.5975 20.3718 51.5784 20.1684 49.5592C20.0158 48.0512 19.736 46.5432 19.2273 45.1119C18.3117 42.3515 16.6077 41.3292 13.7337 41.4825C12.2585 41.5592 10.7834 41.5592 9.51172 40.4857C11.2666 36.1918 12.9961 31.9234 14.7765 27.6806C14.9036 27.3483 15.336 27.0927 15.6666 26.8883C17.8793 25.5848 19.558 23.7956 20.7788 21.5464C21.3892 20.3963 21.5672 19.2972 20.7025 18.0959C20.3973 17.687 20.321 16.7669 20.5753 16.3324C21.2111 15.2589 22.0504 14.2876 22.8643 13.342C23.0424 13.1119 23.551 13.0864 23.9071 13.1375C24.5684 13.1886 25.2296 13.3675 25.8909 13.4697C28.5869 13.8531 30.6215 14.9777 31.1811 17.9426C31.3591 18.8883 31.8424 19.7573 32.3002 20.6263C32.8088 21.5975 32.6054 22.3388 31.9441 23.1311C29.7314 25.7381 29.884 28.6519 31.003 31.6167C31.7406 33.6103 33.4955 34.0448 35.047 32.8691C35.7083 32.3579 36.9291 32.179 37.7684 32.3835C39.2944 32.7924 40.6932 33.5848 42.1175 34.326C42.4227 34.4793 42.7025 35.0927 42.677 35.4506C42.4736 38.671 41.736 41.7381 40.1082 44.5752ZM15.2851 37.8276C15.2851 37.6742 15.2851 37.5209 15.2597 37.342C14.9545 37.1886 14.573 36.8052 14.395 36.8819C13.5811 37.2653 12.7926 37.7509 12.0551 38.2876C11.9533 38.3643 12.1822 38.9266 12.284 39.2844C13.2504 38.7988 14.2678 38.3132 15.2851 37.8276ZM21.5926 34.1215C22.4574 33.5848 23.3221 33.0736 24.136 32.5113C24.2377 32.4346 24.2377 32.0257 24.136 31.8212C24.0851 31.6934 23.7291 31.5145 23.6019 31.5912C22.7372 32.0257 21.8978 32.5113 21.084 33.0225C20.9568 33.0991 20.9568 33.5081 21.0077 33.7126C21.084 33.8404 21.3383 33.9426 21.5926 34.1215ZM17.04 36.7796C17.9302 36.2173 18.7695 35.7062 19.6088 35.1439C19.7106 35.0672 19.7106 34.6071 19.5834 34.4538C19.4562 34.3004 19.0747 34.1726 18.9221 34.2493C18.1337 34.6327 17.3707 35.0928 16.6331 35.5528C16.4805 35.6551 16.4042 36.0129 16.4551 36.2173C16.5059 36.4474 16.7603 36.5752 17.04 36.7796ZM26.1452 31.5145C27.0354 30.9522 27.8747 30.441 28.714 29.8787C28.8158 29.802 28.8158 29.3164 28.714 29.2142C28.536 29.0608 28.1545 28.9074 27.9765 29.0097C27.2389 29.3675 26.5013 29.802 25.8146 30.2621C25.6366 30.3899 25.5603 30.7733 25.5857 31.0289C25.5857 31.1822 25.8909 31.31 26.1452 31.5145Z" fill="url(#paint0_linear_1_4998)"/>
<path id="Vector_2" d="M7.50261 41.4569C6.3581 38.7477 5.23902 36.064 4.14538 33.3803C2.92457 30.4154 1.8818 27.3739 0.533822 24.4601C-1.34826 20.3196 2.0344 16.0256 5.16272 15.0288C9.94423 13.4953 15.0818 16.9458 15.1581 21.8787C15.1581 22.4921 15.0564 23.1566 14.8275 23.7445C12.4876 29.5975 10.1223 35.425 7.75694 41.2525C7.73151 41.3036 7.65521 41.3291 7.50261 41.4569ZM3.96735 22.032C3.94191 24.1023 5.56966 25.7892 7.60434 25.7892C9.58816 25.7892 11.3176 24.0512 11.3176 22.0576C11.3176 20.0895 9.68989 18.4282 7.70608 18.4026C5.59509 18.4026 3.96735 19.9617 3.96735 22.032Z" fill="#076046"/>
<path id="Vector_3" d="M36.1661 26.7605C33.877 21.0863 31.7661 15.3355 29.2736 9.73809C27.5187 5.77643 30.7996 -0.229963 36.6239 6.88569e-05C40.5406 0.153423 43.6435 3.14384 43.9741 7.05438C43.9996 7.41221 43.9741 7.84671 43.847 8.17898C41.4308 14.3898 39.0146 20.6007 36.5984 26.786C36.4458 26.786 36.3187 26.786 36.1661 26.7605ZM36.3187 11.0927C38.4042 11.0927 40.0065 9.50806 39.9811 7.41221C39.9811 5.34192 38.3025 3.68058 36.2932 3.70614C34.3603 3.7317 32.6817 5.4186 32.6308 7.36109C32.6054 9.38026 34.284 11.0672 36.3187 11.0927Z" fill="#076046"/>
<path id="Vector_4" d="M0.660156 39.0543C1.88097 38.5176 3.05091 37.9809 4.39888 37.3674C5.16189 39.1821 5.82316 40.869 6.56073 42.5048C6.78964 43.0416 7.24744 43.4761 7.60351 43.9361C7.95958 43.4505 8.29021 42.9649 8.62085 42.4793C8.74802 42.3003 8.82432 42.1214 8.77345 42.1981C10.8081 42.377 12.7156 42.5559 14.5977 42.6837C16.5815 42.8115 17.5989 44.0384 18.1584 45.7764C19.1503 48.9457 19.1503 52.1917 19.0995 55.4633C12.4104 55.3866 2.89831 49.4569 0.660156 39.0543Z" fill="#076046"/>
<path id="Vector_5" d="M29.1465 54.1598C28.9685 51.9872 28.7396 49.9425 28.6378 47.8722C28.587 46.6454 29.1719 45.7764 30.3164 45.163C31.639 44.4729 32.8852 43.5783 34.0297 42.6071C35.8101 41.1246 36.9292 41.278 38.0228 43.3227C38.0991 43.4761 38.15 43.6294 38.2517 43.7828C39.2945 45.4441 39.0147 46.8243 37.6413 48.2812C35.0471 51.0416 31.817 53.4697 29.1465 54.1598Z" fill="#076046"/>
<path id="Vector_6" d="M42.5756 32.7924C40.9478 32.2045 39.4727 31.5911 37.9721 31.1055C36.6495 30.6965 35.3524 30.9521 34.2588 31.7956C33.2923 32.5368 32.7328 32.1789 32.2495 31.3099C30.9524 28.984 31.4357 25.508 33.4704 23.4377C34.1571 25.0735 34.7929 26.6582 35.4796 28.2173C35.6576 28.6262 36.09 28.9329 36.3952 29.2908C36.675 28.9585 37.031 28.6518 37.1837 28.2428C37.8958 26.5815 38.5825 24.8946 39.3455 22.9777C41.3547 26.0959 42.3467 29.3163 42.5756 32.7924Z" fill="url(#paint1_linear_1_4998)"/>
<path id="Vector_7" d="M12.6914 14.901C15.4891 13.6998 18.1596 13.0097 21.1862 13.0863C20.6267 13.8531 20.1434 14.4921 19.7365 15.1566C18.9735 16.4346 18.77 17.7125 19.7111 19.0672C19.9654 19.425 20.0163 20.1662 19.8382 20.5752C19.0498 22.441 17.7018 23.8723 15.9469 25.0736C17.3457 20.9074 15.9215 17.687 12.6914 14.901Z" fill="#076046"/>
<path id="Vector_8" d="M3.94223 36.1918C2.69599 36.7285 1.60235 37.1886 0.432406 37.6742C-0.0762646 34.8116 0.10177 31.9745 1.01738 29.1375C1.98385 31.4889 2.95033 33.8148 3.94223 36.1918Z" fill="#076046"/>
</g>
</g>
<defs>
<linearGradient id="paint0_linear_1_4998" x1="26.0952" y1="8.82688" x2="26.0952" y2="60.2886" gradientUnits="userSpaceOnUse">
<stop stop-color="#1D95D2"/>
<stop offset="1" stop-color="#47B43A"/>
</linearGradient>
<linearGradient id="paint1_linear_1_4998" x1="37.0524" y1="21.9962" x2="37.0524" y2="33.7738" gradientUnits="userSpaceOnUse">
<stop stop-color="#1D95D2"/>
<stop offset="1" stop-color="#47B43A"/>
</linearGradient>
<clipPath id="clip0_1_4998">
<rect width="44" height="56" fill="white"/>
</clipPath>
</defs>
</svg>
