<svg width="66" height="56" viewBox="0 0 66 56" fill="none" xmlns="http://www.w3.org/2000/svg">
<g id="Frame" clip-path="url(#clip0_1_5012)">
<g id="Group">
<path id="Vector" d="M41.3316 14.3298C48.8061 14.3298 56.251 14.3298 63.7255 14.3298C65.9117 14.3298 66.0299 14.4198 66.0299 16.5782C66.0299 29.0793 66.0299 41.5504 66.0004 54.0515C66.0004 54.711 65.5572 55.3705 65.3504 56.03C64.7005 55.7902 63.9619 55.6703 63.4596 55.2806C62.0711 54.2313 60.7121 53.1821 59.5008 51.953C58.1123 50.544 56.576 50.1243 54.6557 50.1542C42.6906 50.2442 30.696 50.1842 18.7309 50.1842C16.7219 50.1842 16.5742 50.0343 16.5742 47.9658C16.5742 37.5333 16.5742 27.0707 16.5742 16.6382C16.5742 14.4797 16.6924 14.3898 18.8491 14.3898C26.294 14.3298 33.798 14.3298 41.3316 14.3298ZM44.7882 27.4305C44.9359 27.3705 44.9359 27.4005 45.0836 27.3405C48.0971 32.227 51.1105 37.1136 54.1535 41.9701C54.2125 42.06 54.2716 42.12 54.3307 42.1799C54.9807 42.7795 56.0147 42.5397 56.3987 41.7303C56.4578 41.5804 56.5169 41.4305 56.5169 41.2806C56.6056 38.9123 56.5465 36.514 56.5465 34.1157C56.5465 30.4283 56.576 26.7709 56.5169 23.0836C56.5169 22.5739 56.1329 22.0343 55.7783 21.6446C55.6306 21.4947 54.892 21.5847 54.7443 21.7645C54.4489 22.2142 54.2125 22.8138 54.2125 23.3534C54.183 27.5804 54.183 31.8073 54.183 36.0343C54.183 36.3941 54.1239 36.7538 54.0353 37.3834C50.9037 32.317 47.9789 27.5204 44.9654 22.7538C44.9359 22.7238 44.9064 22.6639 44.8768 22.6339C44.1678 21.7645 42.7497 22.1243 42.4838 23.2035C42.4543 23.2934 42.4543 23.4133 42.4543 23.5033C42.3952 29.1692 42.3952 34.8352 42.4247 40.5011C42.4247 41.4904 42.0702 42.8994 43.6065 42.9294C45.1427 42.9294 44.7882 41.4904 44.7882 40.5311C44.7882 36.1542 44.7882 31.8074 44.7882 27.4305ZM28.362 23.893C30.1346 23.893 31.7595 23.893 33.3844 23.893C35.0389 23.893 36.7228 23.893 38.3773 23.893C39.2636 23.893 40.0317 23.7131 40.0317 22.6639C40.0317 21.6146 39.2045 21.4647 38.3477 21.4647C35.2161 21.4947 32.055 21.4647 28.9234 21.4647C26.7667 21.4647 25.9395 22.3341 25.9395 24.5525C25.9395 29.0793 25.9395 33.6061 25.9395 38.1328C25.9395 42.7795 26.1167 42.9594 30.7255 42.9594C33.3253 42.9594 35.9252 43.0193 38.525 42.8994C38.6432 42.8994 38.7613 42.8694 38.85 42.8095C39.5885 42.4198 39.5885 41.3106 38.8795 40.8309C38.7318 40.741 38.6136 40.651 38.4659 40.5911C37.9932 40.4112 37.4023 40.5611 36.8706 40.5611C34.0344 40.5611 31.2278 40.5611 28.3916 40.5611V33.3962C31.5527 33.3962 34.5957 33.4262 37.6387 33.3962C38.6136 33.3962 40.0317 33.756 40.0021 32.1971C39.9726 30.6382 38.5841 31.0279 37.6091 31.0279C34.5366 30.9979 31.4641 31.0279 28.362 31.0279V23.893Z" fill="url(#paint0_linear_1_5012)"/>
<path id="Vector_2" d="M14.1513 35.7944C9.51298 34.9251 6.41092 37.2634 3.54521 40.1713C3.07252 40.651 2.51119 41.1006 1.94987 41.4904C1.03402 42.0899 0.177261 41.7002 0.0295434 40.591C-0.0295434 40.2612 0.0295434 39.9015 0.0295434 39.5418C0 27.1006 0 14.6895 0 2.24839C0 0.149893 0.147717 0 2.15667 0C17.2238 0 32.291 0 47.3581 0C49.308 0 49.4557 0.179871 49.4852 2.12848C49.4852 5.33619 49.4852 8.57388 49.4852 11.9315C48.8353 11.9315 48.3035 11.9315 47.7717 11.9315C37.9928 11.9315 28.2435 11.9315 18.4646 11.9315C15.4512 11.9315 14.1513 13.2505 14.1513 16.2784C14.1513 22.2141 14.1513 28.1199 14.1513 34.0557C14.1513 34.5653 14.1513 35.1049 14.1513 35.7944Z" fill="#076046"/>
</g>
</g>
<defs>
<linearGradient id="paint0_linear_1_5012" x1="41.3021" y1="10.1598" x2="41.3021" y2="60.2001" gradientUnits="userSpaceOnUse">
<stop stop-color="#1D95D2"/>
<stop offset="1" stop-color="#47B43A"/>
</linearGradient>
<clipPath id="clip0_1_5012">
<rect width="66" height="56" fill="white"/>
</clipPath>
</defs>
</svg>
