<svg width="20" height="20" viewBox="0 0 20 20" fill="none" xmlns="http://www.w3.org/2000/svg">
<g id="fi_11502423">
<g id="1">
<g id="logo-twitter 2">
<g id="Group">
<g id="2">
<g id="logo-fb-simple 2">
<g id="Group_2">
<g id="3">
<g id="logo-instagram 1">
<g id="Group_3">
<path id="Vector" d="M9.71799 2.77556C11.9789 2.77556 12.2466 2.78403 13.1398 2.82476C13.6768 2.83133 14.2087 2.92993 14.7124 3.11629C15.0776 3.25715 15.4093 3.47294 15.6861 3.74976C15.963 4.02658 16.1787 4.35829 16.3196 4.72355C16.506 5.22722 16.6046 5.75913 16.6111 6.29613C16.6515 7.18928 16.6603 7.45702 16.6603 9.71791C16.6603 11.9788 16.6519 12.2465 16.6111 13.1397C16.6046 13.6767 16.506 14.2086 16.3196 14.7123C16.1787 15.0775 15.963 15.4092 15.6861 15.6861C15.4093 15.9629 15.0776 16.1787 14.7124 16.3195C14.2087 16.5059 13.6768 16.6045 13.1398 16.6111C12.247 16.6514 11.9793 16.6603 9.71799 16.6603C7.4567 16.6603 7.18896 16.6518 6.29622 16.6111C5.75921 16.6045 5.22731 16.5059 4.72363 16.3195C4.35838 16.1787 4.02666 15.9629 3.74984 15.6861C3.47303 15.4092 3.25724 15.0775 3.11637 14.7123C2.93002 14.2086 2.83141 13.6767 2.82484 13.1397C2.78452 12.2465 2.77565 11.9788 2.77565 9.71791C2.77565 7.45702 2.78412 7.18928 2.82484 6.29613C2.83141 5.75913 2.93002 5.22722 3.11637 4.72355C3.25724 4.35829 3.47303 4.02658 3.74984 3.74976C4.02666 3.47294 4.35838 3.25715 4.72363 3.11629C5.22731 2.92993 5.75921 2.83133 6.29622 2.82476C7.18936 2.78443 7.4571 2.77556 9.71799 2.77556ZM9.71799 1.24976C7.4196 1.24976 7.13009 1.25943 6.22686 1.30056C5.52406 1.31454 4.82871 1.44761 4.17041 1.69411C3.60569 1.90688 3.09419 2.24031 2.67162 2.67113C2.24041 3.09386 1.90669 3.60564 1.69379 4.17073C1.44729 4.82903 1.31422 5.52438 1.30024 6.22718C1.25992 7.1296 1.25024 7.41912 1.25024 9.7175C1.25024 12.0159 1.25992 12.3054 1.30105 13.2086C1.31503 13.9114 1.4481 14.6068 1.6946 15.2651C1.90726 15.8301 2.2407 16.3419 2.67162 16.7647C3.09443 17.1956 3.60621 17.529 4.17121 17.7417C4.82952 17.9882 5.52486 18.1213 6.22767 18.1353C7.13089 18.1756 7.4192 18.1861 9.7188 18.1861C12.0184 18.1861 12.3067 18.1764 13.2099 18.1353C13.9127 18.1213 14.6081 17.9882 15.2664 17.7417C15.8287 17.5237 16.3394 17.1908 16.7657 16.7642C17.192 16.3376 17.5246 15.8268 17.7422 15.2643C17.9887 14.606 18.1218 13.9106 18.1357 13.2078C18.1761 12.3054 18.1857 12.0159 18.1857 9.7175C18.1857 7.41912 18.1761 7.1296 18.1349 6.22637C18.121 5.52357 17.9879 4.82823 17.7414 4.16992C17.5287 3.60491 17.1953 3.09313 16.7644 2.67032C16.3416 2.2394 15.8298 1.90597 15.2648 1.6933C14.6065 1.4468 13.9111 1.31373 13.2083 1.29976C12.3059 1.25943 12.0164 1.24976 9.71799 1.24976Z" fill="#5B5B5F"/>
<path id="Vector_2" d="M9.71949 5.37085C8.85946 5.37085 8.01874 5.62588 7.30365 6.10369C6.58856 6.58149 6.03122 7.26062 5.7021 8.05518C5.37298 8.84975 5.28687 9.72406 5.45465 10.5676C5.62243 11.4111 6.03658 12.1859 6.64471 12.794C7.25284 13.4021 8.02765 13.8163 8.87116 13.9841C9.71466 14.1519 10.589 14.0657 11.3835 13.7366C12.1781 13.4075 12.8572 12.8502 13.335 12.1351C13.8128 11.42 14.0679 10.5793 14.0679 9.71924C14.0679 8.56598 13.6097 7.45995 12.7943 6.64446C11.9788 5.82898 10.8728 5.37085 9.71949 5.37085ZM9.71949 12.5418C9.16123 12.5418 8.61551 12.3763 8.15134 12.0661C7.68717 11.756 7.32539 11.3152 7.11176 10.7994C6.89813 10.2836 6.84223 9.71611 6.95114 9.16858C7.06005 8.62105 7.32887 8.11812 7.72362 7.72337C8.11836 7.32863 8.6213 7.0598 9.16883 6.95089C9.71635 6.84198 10.2839 6.89788 10.7996 7.11151C11.3154 7.32515 11.7562 7.68693 12.0664 8.1511C12.3765 8.61527 12.5421 9.16099 12.5421 9.71924C12.5421 10.4678 12.2447 11.1858 11.7154 11.7151C11.186 12.2444 10.4681 12.5418 9.71949 12.5418Z" fill="#5B5B5F"/>
<path id="Vector_3" d="M14.2388 6.21414C14.8 6.21414 15.2549 5.75921 15.2549 5.19801C15.2549 4.63682 14.8 4.18188 14.2388 4.18188C13.6776 4.18188 13.2227 4.63682 13.2227 5.19801C13.2227 5.75921 13.6776 6.21414 14.2388 6.21414Z" fill="#5B5B5F"/>
</g>
</g>
</g>
</g>
</g>
</g>
</g>
</g>
</g>
</g>
</svg>
