<svg width="20" height="20" viewBox="0 0 20 20" fill="none" xmlns="http://www.w3.org/2000/svg">
<g id="fi_11502423">
<g id="4">
<g id="logo-github 1">
<g id="Group">
<path id="Vector" fill-rule="evenodd" clip-rule="evenodd" d="M10.6001 2.50012C6.11144 2.50012 2.50024 6.11132 2.50024 10.6C2.50024 14.1774 4.82896 17.2149 8.03516 18.2949C8.44015 18.3624 8.57515 18.1261 8.57515 17.8899C8.57515 17.6874 8.57515 17.1811 8.57515 16.5062C6.31394 17.0124 5.84144 15.4262 5.84144 15.4262C5.4702 14.4812 4.93021 14.2449 4.93021 14.2449C4.18772 13.7387 4.99771 13.7387 4.99771 13.7387C5.80769 13.8062 6.24644 14.5824 6.24644 14.5824C6.95518 15.8312 8.13641 15.4599 8.6089 15.2574C8.6764 14.7174 8.8789 14.3799 9.11514 14.1774C7.32642 13.9749 5.43645 13.2662 5.43645 10.1613C5.43645 9.28377 5.74019 8.54128 6.28019 8.00129C6.21269 7.79879 5.90894 6.9888 6.34769 5.84132C6.34769 5.84132 7.02268 5.63882 8.57515 6.68506C9.21639 6.51631 9.92513 6.41506 10.6001 6.41506C11.2751 6.41506 11.9838 6.51631 12.6251 6.68506C14.1776 5.63882 14.8526 5.84132 14.8526 5.84132C15.2913 6.95505 15.0213 7.76504 14.9201 8.00129C15.4263 8.57503 15.7638 9.28377 15.7638 10.1613C15.7638 13.2662 13.8738 13.9412 12.0513 14.1437C12.3551 14.3799 12.5913 14.8862 12.5913 15.6287C12.5913 16.7087 12.5913 17.5861 12.5913 17.8561C12.5913 18.0586 12.7263 18.3286 13.1651 18.2611C16.3713 17.2149 18.7 14.1774 18.7 10.6C18.7 6.11132 15.0888 2.50012 10.6001 2.50012Z" fill="#5B5B5F"/>
</g>
</g>
</g>
</g>
</svg>
