<svg width="20" height="20" viewBox="0 0 20 20" fill="none" xmlns="http://www.w3.org/2000/svg">
<g id="fi_11502423">
<g id="1">
<g id="logo-twitter 2">
<g id="Group">
<path id="Vector" d="M17.4994 4.41773C16.8982 4.68494 16.2636 4.85195 15.5955 4.95215C16.2636 4.55133 16.798 3.91671 17.0318 3.14848C16.3972 3.5159 15.6957 3.78311 14.9275 3.95011C14.3263 3.31549 13.4578 2.91467 12.5226 2.91467C10.7189 2.91467 9.24929 4.38433 9.24929 6.188C9.24929 6.45521 9.28269 6.68902 9.34949 6.92282C6.64399 6.78922 4.2057 5.48657 2.56904 3.48249C2.30183 3.98351 2.13482 4.51793 2.13482 5.11916C2.13482 6.2548 2.70264 7.25684 3.60448 7.85806C3.07006 7.82466 2.56904 7.69105 2.10142 7.45725V7.49065C2.10142 9.09391 3.23706 10.43 4.74012 10.7306C4.47291 10.7974 4.1723 10.8308 3.87169 10.8308C3.67128 10.8308 3.43747 10.7974 3.23706 10.764C3.67128 12.0666 4.87373 13.0353 6.30998 13.0353C5.17434 13.9037 3.77148 14.4381 2.23503 14.4381C1.96782 14.4381 1.70061 14.4381 1.4668 14.4047C2.93645 15.3399 4.63992 15.8744 6.51039 15.8744C12.556 15.8744 15.8627 10.8642 15.8627 6.52201C15.8627 6.3884 15.8627 6.2214 15.8627 6.08779C16.4974 5.65358 17.0652 5.08576 17.4994 4.41773Z" fill="#5B5B5F"/>
</g>
</g>
</g>
</g>
</svg>
