              <svg xmlns="http://www.w3.org/2000/svg" width="16" height="16" viewBox="0 0 16 16" fill="none">
                <g clip-path="url(#clip0_103_6284)">
                  <path
                    d="M7.33333 7.33333L16 10.298L12.1227 12.1227L10.298 16L7.33333 7.33333ZM7.89533 13.0953L8.872 15.95C8.58533 15.9813 8.29533 16 8.00067 16C3.58867 16 0 12.4113 0 8C0 3.58867 3.58867 0 8 0C12.4113 0 16 3.58867 16 8C16 8.29467 15.9813 8.58533 15.95 8.872L13.99 8.20133C13.992 8.134 14 8.068 14 8C14 5.43333 12.38 3.238 10.1087 2.38267C10.7973 3.64667 11.5173 5.40733 11.6427 7.398L9.55333 6.68333C9.28133 5.05333 8.566 3.644 8.002 2.734C7.28933 3.88533 6.334 5.83333 6.334 7.99933L6.37667 8.654C6.53133 10.4627 7.27333 12.058 7.896 13.0947L7.89533 13.0953ZM2.084 7H4.38533C4.574 5.17333 5.244 3.56333 5.88733 2.38467C3.91933 3.12733 2.442 4.876 2.084 7ZM5.888 13.616C5.244 12.4373 4.57467 10.8267 4.386 9H2.084C2.442 11.1247 3.92 12.8733 5.888 13.616Z"
                    fill="#5B5B5F" />
                </g>
                <defs>
                  <clipPath id="clip0_103_6284">
                    <rect width="16" height="16" fill="white" />
                  </clipPath>
                </defs>
              </svg>