<svg width="31" height="35" viewBox="0 0 31 35" fill="none" xmlns="http://www.w3.org/2000/svg">
<g id="Frame" clip-path="url(#clip0_1_553)">
<g id="Group">
<path id="Vector" d="M26.8916 13.921C26.1541 13.8465 25.4167 13.7273 24.694 13.7422C23.9713 13.7571 23.2485 13.9061 22.4521 14.0104C22.2456 10.6729 20.7412 8.06551 17.7323 6.47127C15.6527 5.38362 13.4403 5.23463 11.1984 5.99449C6.67036 7.51423 4.26623 12.5055 5.85915 17.0647C7.33408 21.2962 12.4963 24.4995 17.9093 21.8176C18.6173 23.1437 19.3252 24.4548 20.1069 25.9001C19.399 27.3006 18.2043 27.8221 16.4786 27.3006C16.3164 27.2559 16.1394 27.2112 15.9919 27.1516C14.5907 26.5556 13.1895 26.5705 11.7884 27.1516C11.4934 27.2708 11.1836 27.3453 10.8739 27.4198C9.72346 27.7178 8.79426 27.3304 8.05679 26.4513C7.74706 26.0789 7.46682 25.6617 7.23084 25.2296C6.64087 24.127 5.77066 23.397 4.60547 22.9798C4.20724 22.8457 3.8385 22.6669 3.45502 22.4881C2.21609 21.8921 1.58187 20.7449 1.84735 19.4039C2.20134 17.5564 1.99485 15.8728 1.0214 14.2041C0.106941 12.6843 0.313431 11.4626 1.65561 10.3302C3.04204 9.13826 3.88275 7.73772 4.19249 5.9051C4.51697 4.07247 5.47567 3.3275 7.31933 3.3573C9.16299 3.3871 10.6379 2.71663 12.0096 1.53958C13.278 0.466824 14.4727 0.526421 15.8149 1.53958C15.9771 1.65877 16.1394 1.76307 16.2869 1.89716C17.3783 2.95502 18.7205 3.28281 20.1807 3.31261C22.4668 3.3573 23.2338 3.95328 23.6468 6.20309C23.986 7.96121 24.8857 9.25746 26.2131 10.3898C27.4078 11.4179 27.5996 12.7439 26.8916 13.921Z" fill="url(#paint0_linear_1_553)"/>
<path id="Vector_2" d="M24.8264 26.2577C21.67 26.2428 19.2216 23.7248 19.2364 20.5214C19.2511 17.3926 21.7585 14.9044 24.8854 14.9193C27.9975 14.9342 30.4606 17.4224 30.4606 20.581C30.4606 23.7695 27.9827 26.2726 24.8264 26.2577ZM24.0594 21.1174C23.6759 20.7002 23.3367 20.3426 22.9975 19.985C22.5845 19.553 22.1273 19.3742 21.67 19.851C21.2423 20.2979 21.4045 20.7449 21.8028 21.1472C22.319 21.6687 22.8352 22.2051 23.3662 22.7265C23.9267 23.2778 24.2954 23.2778 24.8706 22.6967C25.8588 21.6985 26.847 20.7002 27.8205 19.702C28.3219 19.1805 28.3957 18.6441 27.9827 18.2865C27.4665 17.8395 27.0535 18.0928 26.6553 18.51C25.8293 19.3444 24.9886 20.1787 24.0594 21.1174Z" fill="url(#paint1_linear_1_553)"/>
<path id="Vector_3" d="M10.9188 12.8185C12.9099 12.8036 12.4527 13.1016 13.0869 11.2094C13.2196 10.7922 13.3376 10.3601 13.5146 9.94291C13.5736 9.79392 13.7506 9.58533 13.8834 9.58533C14.0013 9.58533 14.2078 9.77902 14.2521 9.94291C14.5176 10.6581 14.7683 11.3882 14.9601 12.1182C15.1075 12.6695 15.4025 12.8632 15.963 12.8334C16.671 12.7887 17.3789 12.8036 18.0869 12.8334C18.2786 12.8334 18.4704 12.9675 18.6474 13.042C18.5294 13.2357 18.4556 13.489 18.2934 13.6231C17.7624 14.0551 17.2019 14.4723 16.6267 14.8448C16.14 15.1577 15.9778 15.4855 16.2137 16.0666C16.494 16.7519 16.6857 17.4671 16.8922 18.1823C16.9365 18.3462 16.8775 18.5399 16.8627 18.7335C16.6562 18.7037 16.4202 18.7335 16.2727 18.6442C15.6385 18.227 15.019 17.78 14.4291 17.2883C14.0308 16.9605 13.7211 16.9605 13.3229 17.2734C12.7329 17.7502 12.1134 18.1972 11.4792 18.6293C11.3317 18.7335 11.081 18.7037 10.8893 18.7335C10.8745 18.5399 10.8008 18.3462 10.845 18.1674C11.0662 17.4373 11.2875 16.7072 11.553 15.9921C11.7447 15.4855 11.6267 15.1875 11.1842 14.8895C10.55 14.4723 9.9453 14.0104 9.34058 13.5337C9.20784 13.4294 9.16359 13.2208 9.08984 13.0569C9.25209 12.9824 9.41433 12.8483 9.57657 12.8334C10.0485 12.7887 10.491 12.8185 10.9188 12.8185Z" fill="url(#paint2_linear_1_553)"/>
<path id="Vector_4" d="M8.23444 34.2885C7.73296 33.4095 7.17249 32.5453 6.73001 31.6216C6.37603 30.9064 5.96305 30.6829 5.18134 30.9064C4.37013 31.1448 3.49992 31.2193 2.65921 31.3683C2.27573 31.4428 1.966 31.3981 2.18724 30.8915C3.14594 28.7907 4.11939 26.7048 5.15184 24.455C5.52057 24.9168 5.84505 25.2595 6.11054 25.6469C6.49402 26.1833 6.80376 26.7942 7.21674 27.3007C8.04269 28.3288 9.14889 28.7162 11.0663 28.6864C10.1961 30.5637 9.35538 32.3963 8.49992 34.2438C8.41143 34.2736 8.32293 34.2736 8.23444 34.2885Z" fill="url(#paint3_linear_1_553)"/>
<path id="Vector_5" d="M21.1535 26.5259C22.0532 26.8239 22.8644 27.0921 23.6609 27.3751C23.8379 27.4347 24.0591 27.5837 24.1328 27.7476C24.6343 28.7608 25.0915 29.8037 25.5783 30.8318C25.829 31.3533 25.593 31.4576 25.1358 31.3682C24.1771 31.1894 23.2036 31.0255 22.2449 30.8318C21.773 30.7424 21.4927 30.8318 21.2567 31.3086C20.8438 32.128 20.357 32.9028 19.8998 33.6925C19.7818 33.9011 19.6343 34.0799 19.3836 34.4524C18.4544 32.4409 17.5989 30.5785 16.6992 28.6565C18.7346 28.9247 20.18 28.1499 21.1535 26.5259Z" fill="url(#paint4_linear_1_553)"/>
</g>
</g>
<defs>
<linearGradient id="paint0_linear_1_553" x1="0.462891" y1="0.757202" x2="27.7263" y2="7.395" gradientUnits="userSpaceOnUse">
<stop stop-color="#0C31FF"/>
<stop offset="1" stop-color="#009666"/>
</linearGradient>
<linearGradient id="paint1_linear_1_553" x1="19.9846" y1="14.9192" x2="28.8448" y2="26.7388" gradientUnits="userSpaceOnUse">
<stop stop-color="#00FFAD"/>
<stop offset="1" stop-color="#0C31FF"/>
</linearGradient>
<linearGradient id="paint2_linear_1_553" x1="9.08984" y1="9.58533" x2="18.752" y2="12.0358" gradientUnits="userSpaceOnUse">
<stop stop-color="#0C31FF"/>
<stop offset="1" stop-color="#009666"/>
</linearGradient>
<linearGradient id="paint3_linear_1_553" x1="2.11328" y1="24.455" x2="11.2978" y2="26.4849" gradientUnits="userSpaceOnUse">
<stop stop-color="#0C31FF"/>
<stop offset="1" stop-color="#009666"/>
</linearGradient>
<linearGradient id="paint4_linear_1_553" x1="16.6992" y1="26.5259" x2="25.6829" y2="28.9969" gradientUnits="userSpaceOnUse">
<stop stop-color="#0C31FF"/>
<stop offset="1" stop-color="#009666"/>
</linearGradient>
<clipPath id="clip0_1_553">
<rect width="30" height="33.6875" fill="white" transform="translate(0.460938 0.764771)"/>
</clipPath>
</defs>
</svg>
