<svg width="34" height="33" viewBox="0 0 34 33" fill="none" xmlns="http://www.w3.org/2000/svg">
<g id="Frame" clip-path="url(#clip0_1_572)">
<g id="Group">
<path id="Vector" d="M3.65908 19.6843C3.95085 20.0355 4.16306 20.3738 4.44157 20.6469C6.69621 22.8193 10.0914 22.1038 11.3116 19.229C11.4044 19.0079 11.6564 18.8128 11.8819 18.7087C13.0092 18.2404 13.805 17.4599 14.2957 16.3542C14.4018 16.1201 14.6405 15.8599 14.8792 15.7558C16.0463 15.2875 16.8421 14.481 17.3328 13.3493C17.4257 13.1282 17.6511 12.894 17.8766 12.803C20.728 11.6583 21.484 8.34117 19.362 6.1558C19.0702 5.85661 18.7387 5.60945 18.301 5.24522C19.2957 4.38668 20.0782 3.4631 21.0596 2.89074C22.9031 1.83708 25.171 3.25497 25.1578 5.34929C25.1578 5.6875 25.0914 6.02572 25.0649 6.37694C26.6697 7.52166 26.9615 8.18508 26.6564 10.0322C28.2214 11.0989 28.606 11.9575 28.2347 13.6745C28.3673 13.7526 28.4999 13.8436 28.6458 13.9347C30.1578 14.9233 30.4761 16.9266 29.2161 18.2014C26.8819 20.5559 24.5079 22.8713 22.1074 25.1608C20.927 26.2795 19.4416 26.7608 17.8103 26.6307C16.7758 26.5526 16.0596 26.8909 15.3434 27.6323C13.7784 29.2714 12.1206 30.8323 10.5026 32.4193C9.81292 33.0828 9.33547 33.0828 8.64581 32.4193C5.92698 29.7917 3.24794 27.164 0.568891 24.5234C-0.0942391 23.873 -0.0809765 23.3526 0.582153 22.6892C1.55032 21.7396 2.53176 20.777 3.65908 19.6843Z" fill="url(#paint0_linear_1_572)"/>
<path id="Vector_2" d="M12.2275 13.7265C12.7447 14.8062 12.6652 15.6778 11.9225 16.3932C11.1798 17.1087 10.3044 17.1997 9.33626 16.7184C9.40257 17.1477 9.52193 17.5379 9.52193 17.9152C9.53519 18.7477 9.12405 19.3721 8.36809 19.7233C7.62538 20.0745 6.82962 20.0745 6.19302 19.5282C5.46358 18.9168 4.77392 18.2274 4.13732 17.5119C3.56702 16.8615 3.56702 15.9379 4.03122 15.2095C4.49541 14.494 5.34421 14.1168 6.17976 14.2599C6.3787 14.2989 6.56437 14.3379 6.89594 14.416C5.83493 13.4403 5.1718 12.4127 6.07366 11.1119C6.71026 10.2013 7.63864 10.0972 8.8588 10.4355C7.71822 9.3948 7.13466 8.34114 8.06305 7.06633C8.69965 6.19478 9.61477 6.09072 10.689 6.41592C10.2646 5.72649 9.93307 5.1021 10.1585 4.33461C10.5829 2.86469 12.3734 2.21428 13.514 3.24192C15.1055 4.67283 16.6042 6.19478 18.1028 7.72975C18.7394 8.38016 18.7262 9.44683 18.2089 10.2013C17.6917 10.9428 16.7235 11.281 15.8217 11.0078C15.6758 10.9688 15.5299 10.9037 15.2912 10.7997C15.7156 11.7753 15.7288 12.6599 14.9861 13.4013C14.2169 14.1558 13.3283 14.2338 12.2275 13.7265Z" fill="url(#paint1_linear_1_572)"/>
<path id="Vector_3" d="M30.4097 19.8274C31.5237 20.8941 32.6113 21.9217 33.6723 22.9884C34.0834 23.4046 33.9773 23.964 33.4601 24.4713C31.59 26.3055 29.72 28.1396 27.85 29.9738C27.0144 30.7933 26.1656 31.6258 25.3301 32.4453C24.7068 33.0567 24.1895 33.0567 23.5662 32.4583C22.2399 31.1705 20.9136 29.8697 19.5078 28.4908C21.4839 28.1006 22.9959 27.112 24.3221 25.7721C26.1524 23.925 28.0224 22.1298 29.8792 20.3087C30.0516 20.1526 30.224 19.9965 30.4097 19.8274Z" fill="url(#paint2_linear_1_572)"/>
<path id="Vector_4" d="M17.0025 3.78827C16.3792 3.18989 15.8222 2.65656 15.1855 2.04517C16.0476 1.62891 16.8699 1.17362 17.7187 0.83541C18.4349 0.54923 18.846 1.09557 19.2572 1.55086C18.5012 2.30534 17.7452 3.0468 17.0025 3.78827Z" fill="url(#paint3_linear_1_572)"/>
</g>
</g>
<defs>
<linearGradient id="paint0_linear_1_572" x1="0.078125" y1="2.53406" x2="30.5297" y2="9.81347" gradientUnits="userSpaceOnUse">
<stop stop-color="#0C31FF"/>
<stop offset="1" stop-color="#009666"/>
</linearGradient>
<linearGradient id="paint1_linear_1_572" x1="12.2569" y1="18.042" x2="10.3505" y2="1.49132" gradientUnits="userSpaceOnUse">
<stop stop-color="#0024FC"/>
<stop offset="1" stop-color="#00FFAD"/>
</linearGradient>
<linearGradient id="paint2_linear_1_572" x1="27.795" y1="31.4444" x2="26.6539" y2="18.8143" gradientUnits="userSpaceOnUse">
<stop stop-color="#0024FC"/>
<stop offset="1" stop-color="#00FFAD"/>
</linearGradient>
<linearGradient id="paint3_linear_1_572" x1="17.5261" y1="3.44952" x2="17.3083" y2="0.513466" gradientUnits="userSpaceOnUse">
<stop stop-color="#0024FC"/>
<stop offset="1" stop-color="#00FFAD"/>
</linearGradient>
<clipPath id="clip0_1_572">
<rect width="33.8462" height="32.1562" fill="white" transform="translate(0.0761719 0.757446)"/>
</clipPath>
</defs>
</svg>
