<svg width="22" height="35" viewBox="0 0 22 35" fill="none" xmlns="http://www.w3.org/2000/svg">
<g id="Frame" clip-path="url(#clip0_1_563)">
<g id="Group">
<path id="Vector" d="M9.77707 24.548C8.75205 24.548 7.83217 24.548 6.84658 24.548C6.84658 25.8686 6.84658 27.1495 6.84658 28.4701C4.52058 28.4701 2.28657 28.4701 0 28.4701C0 19.8864 0 11.3424 0 2.78516C1.61637 2.78516 3.20646 2.78516 4.84911 2.78516C4.84911 4.09251 4.84911 5.37345 4.84911 6.72043C8.80462 6.72043 12.6944 6.72043 16.6368 6.72043C16.6368 5.42628 16.6368 4.14533 16.6368 2.81157C18.2926 2.81157 19.8958 2.81157 21.5385 2.81157C21.5385 11.3424 21.5385 19.8732 21.5385 28.4569C19.265 28.4569 17.0179 28.4569 14.705 28.4569C14.705 27.1759 14.705 25.9082 14.705 24.5876C13.7194 24.5876 12.7864 24.5876 11.7614 24.5876C11.7614 23.9141 11.7351 23.3067 11.7877 22.7124C11.8008 22.5804 12.1293 22.4351 12.3265 22.3955C15.4147 21.656 17.5961 18.9224 17.6355 15.7399C17.6749 12.6233 15.5723 9.83695 12.5761 9.005C8.89661 7.98817 4.99366 10.2727 4.08692 13.9703C3.16703 17.7339 5.46675 21.5239 9.212 22.3691C9.68508 22.4747 9.81649 22.6596 9.79021 23.1086C9.75079 23.5444 9.77707 24.0066 9.77707 24.548Z" fill="url(#paint0_linear_1_563)"/>
<path id="Vector_2" d="M15.6635 15.8191C15.5321 18.5791 13.2718 20.7052 10.6042 20.5864C7.85766 20.4543 5.74192 18.1961 5.86019 15.5022C5.97847 12.7422 8.23876 10.6161 10.9196 10.735C13.6661 10.8538 15.795 13.1252 15.6635 15.8191ZM9.69743 18.8696C11.235 17.351 12.7725 15.8323 14.2049 14.4193C13.7975 13.9968 13.377 13.5478 12.917 13.046C11.892 14.076 10.8539 15.1324 9.65801 16.3474C9.29005 15.8455 8.93524 15.3833 8.71184 15.0796C8.12049 15.5682 7.63426 15.9644 7.18746 16.3209C8.08106 17.2189 8.9221 18.0773 9.69743 18.8696Z" fill="url(#paint1_linear_1_563)"/>
<path id="Vector_3" d="M12.6941 26.5685C12.6941 29.2228 12.6941 31.8111 12.6941 34.4522C11.4063 34.4522 10.1579 34.4522 8.84375 34.4522C8.84375 31.8507 8.84375 29.236 8.84375 26.5685C10.1053 26.5685 11.38 26.5685 12.6941 26.5685Z" fill="url(#paint2_linear_1_563)"/>
<path id="Vector_4" d="M14.6914 4.766C12.0369 4.766 9.47432 4.766 6.84608 4.766C6.84608 3.97367 6.79351 3.20774 6.85922 2.45502C6.93807 1.54384 7.76596 0.804322 8.68585 0.791117C10.0788 0.764705 11.4718 0.7515 12.8648 0.791117C13.8372 0.817528 14.6388 1.63628 14.6782 2.61349C14.7177 3.30018 14.6914 4.00008 14.6914 4.766Z" fill="url(#paint3_linear_1_563)"/>
</g>
</g>
<defs>
<linearGradient id="paint0_linear_1_563" x1="0" y1="2.78516" x2="22.2526" y2="7.31505" gradientUnits="userSpaceOnUse">
<stop stop-color="#0C31FF"/>
<stop offset="1" stop-color="#009666"/>
</linearGradient>
<linearGradient id="paint1_linear_1_563" x1="5.85547" y1="10.7302" x2="15.8325" y2="13.1407" gradientUnits="userSpaceOnUse">
<stop stop-color="#0C31FF"/>
<stop offset="1" stop-color="#009666"/>
</linearGradient>
<linearGradient id="paint2_linear_1_563" x1="8.84375" y1="26.5685" x2="12.9292" y2="27.0529" gradientUnits="userSpaceOnUse">
<stop stop-color="#0C31FF"/>
<stop offset="1" stop-color="#009666"/>
</linearGradient>
<linearGradient id="paint3_linear_1_563" x1="6.82617" y1="0.766113" x2="13.7232" y2="4.06196" gradientUnits="userSpaceOnUse">
<stop stop-color="#0C31FF"/>
<stop offset="1" stop-color="#009666"/>
</linearGradient>
<clipPath id="clip0_1_563">
<rect width="21.5385" height="33.6875" fill="white" transform="translate(0 0.764771)"/>
</clipPath>
</defs>
</svg>
